<svg xmlns="http://www.w3.org/2000/svg" width="134.927" height="95.762">
    <defs>
        <linearGradient id="linear-gradient" x1=".001" y1=".501" x2=".999" y2=".501" gradientUnits="objectBoundingBox">
            <stop offset=".003" stop-color="#ffd44f"/>
            <stop offset="1" stop-color="#ffa607"/>
        </linearGradient>
        <linearGradient id="linear-gradient-2" x1=".238" y1=".349" x2=".601" y2=".664" gradientUnits="objectBoundingBox">
            <stop offset="0" stop-color="#faa404"/>
            <stop offset="1" stop-color="#ff7904" stop-opacity="0"/>
        </linearGradient>
        <linearGradient id="linear-gradient-3" x1=".778" y1=".852" x2=".358" y2=".141" gradientUnits="objectBoundingBox">
            <stop offset="0" stop-color="#ffe491"/>
            <stop offset="1" stop-color="#fff"/>
        </linearGradient>
        <style>
            .cls-4{fill:#8d89a3}.cls-10{fill:#656273}.cls-11{fill:#302e3d}.cls-14{fill:url(#linear-gradient)}.cls-15{fill:#f9b400}.cls-16{fill:url(#linear-gradient-2)}.cls-17{fill:#ffc436}.cls-18{fill:url(#linear-gradient-3)}
        </style>
    </defs>
    <g id="_05" data-name="5" transform="translate(1.059)">
        <path id="Path" d="M47.221 94.667A47.334 47.334 0 1 0 0 47.333a47.276 47.276 0 0 0 47.221 47.334z" transform="translate(15.202)" style="opacity:.1;fill:#9895a6"/>
        <path id="Path-2" data-name="Path" d="M41.235 15.619c-6.746.191-14.917 0-20.617-.1-5.7.1-13.872.286-20.618.1C6.651 11.81 9.026 4.667 9.406 0h22.423c.471 4.667 2.755 11.81 9.406 15.619z" transform="translate(41.33 79.238)" style="fill:#9895a6"/>
        <path id="Path-3" data-name="Path" d="M84.563 2.483v58.666a2.455 2.455 0 0 1-2.47 2.476H2.471A2.456 2.456 0 0 1 0 61.149V2.483A2.457 2.457 0 0 1 2.471.006h79.622a2.4 2.4 0 0 1 2.47 2.477z" transform="translate(19.857 17.327)" style="fill:#e1dfeb"/>
        <path id="Path-4" data-name="Path" class="cls-4" d="M84.563 2.483v50.476H0V2.483A2.457 2.457 0 0 1 2.471.006h79.622a2.4 2.4 0 0 1 2.47 2.477z" transform="translate(19.857 17.327)"/>
        <path id="Path-5" data-name="Path" d="M78.482 0H0v47.048h78.482z" transform="translate(22.708 20.476)" style="fill:#1f1d29"/>
        <path id="Path-6" data-name="Path" d="M1.235 2.477A1.239 1.239 0 1 0 0 1.238a1.237 1.237 0 0 0 1.235 1.239z" transform="translate(26.128 23.333)" style="fill:#fd724f"/>
        <path id="Path-7" data-name="Path" d="M1.235 2.477A1.239 1.239 0 1 0 0 1.238a1.237 1.237 0 0 0 1.235 1.239z" transform="translate(30.119 23.333)" style="fill:#ffcb00"/>
        <path id="Path-8" data-name="Path" d="M1.235 2.477A1.239 1.239 0 1 0 0 1.238a1.237 1.237 0 0 0 1.235 1.239z" transform="translate(34.109 23.333)" style="fill:#7ed171"/>
        <path id="Path-9" data-name="Path" d="M78.482 0H0v38.857h16.912V.571h61.57z" transform="translate(22.708 28.667)" style="fill:#1a1723"/>
        <path id="Path-10" data-name="Path" class="cls-10" d="M2.09 4.191A2.1 2.1 0 1 0 0 2.1a2.093 2.093 0 0 0 2.09 2.091z" transform="translate(29.264 32.857)"/>
        <path id="Path-11" data-name="Path" class="cls-11" d="M11.972.976H.475A.449.449 0 0 1 0 .5.45.45 0 0 1 .475.024h11.5a.45.45 0 0 1 .472.476c.095.191-.19.476-.475.476z" transform="translate(25.083 39.214)"/>
        <path id="Path-12" data-name="Path" class="cls-11" d="M11.972.976H.475A.45.45 0 0 1 0 .5.45.45 0 0 1 .475.023h11.5a.45.45 0 0 1 .472.477c.095.191-.19.476-.475.476z" transform="translate(25.083 42.167)"/>
        <path id="Path-13" data-name="Path" class="cls-11" d="M11.972.976H.475A.449.449 0 0 1 0 .5.449.449 0 0 1 .475.024h11.5a.449.449 0 0 1 .472.476c.095.191-.19.476-.475.476z" transform="translate(25.083 45.119)"/>
        <path id="Path-14" data-name="Path" class="cls-11" d="M11.972.976H.475A.45.45 0 0 1 0 .5.45.45 0 0 1 .475.023h11.5a.45.45 0 0 1 .472.477c.095.191-.19.476-.475.476z" transform="translate(25.083 48.071)"/>
        <path id="Path-15" data-name="Path" class="cls-11" d="M11.972.976H.475A.449.449 0 0 1 0 .5.449.449 0 0 1 .475.024h11.5a.449.449 0 0 1 .472.476c.095.19-.19.476-.475.476z" transform="translate(25.083 51.024)"/>
        <path id="Path-16" data-name="Path" class="cls-11" d="M6.461 1.047H.38A.409.409 0 0 1 0 .666V.381A.409.409 0 0 1 .38 0h6.081a.409.409 0 0 1 .38.381v.285c-.095.191-.19.381-.38.381z" transform="translate(25.083 53.905)"/>
        <path id="Path-17" data-name="Path" class="cls-4" d="M2.091 4.19A2.1 2.1 0 1 0 0 2.1a2.093 2.093 0 0 0 2.091 2.09z" transform="translate(59.857 73.81)"/>
        <path id="Path-18" data-name="Path" class="cls-11" d="M4.371 0H0v10.572h4.371z" transform="translate(44.845 50.476)"/>
        <path id="Path-19" data-name="Path" class="cls-11" d="M4.37 0H0v15.429h4.37z" transform="translate(55.582 45.619)"/>
        <path id="Path-20" data-name="Path" class="cls-11" d="M4.371 0H0v10.572h4.371z" transform="translate(66.318 50.476)"/>
        <path id="Path-21" data-name="Path" class="cls-11" d="M4.37 0H0v22.858h4.37z" transform="translate(77.055 38.19)"/>
        <path id="Path-22" data-name="Path" class="cls-11" d="M4.37 0H0v15.715h4.37z" transform="translate(87.79 45.333)"/>
        <path id="Path-23" data-name="Path" class="cls-10" d="M4.371 0H0v2.381h4.371z" transform="translate(44.845 58.667)"/>
        <path id="Path-24" data-name="Path" class="cls-10" d="M4.37 0H0v3.429h4.37z" transform="translate(55.582 57.619)"/>
        <path id="Path-25" data-name="Path" class="cls-10" d="M4.371 0H0v2.381h4.371z" transform="translate(66.318 58.667)"/>
        <path id="Path-26" data-name="Path" class="cls-10" d="M4.37 0H0v5.143h4.37z" transform="translate(77.055 55.905)"/>
        <path id="Path-27" data-name="Path" class="cls-10" d="M4.37 0H0v3.524h4.37z" transform="translate(87.79 57.524)"/>
        <path id="Path-28" data-name="Path" d="M5.464 26.384A14.758 14.758 0 0 1 1 25.526a1.509 1.509 0 0 1-.95-1.809 1.5 1.5 0 0 1 1.805-.952c2.566.857 5.606 1.523 8.266-1.429l.761-.857C14.3 16.765 16.3 14.574 22.566 18c5.036 2.857 6.841 1.809 8.836-1.429a39.439 39.439 0 0 0 1.9-4.1c1.045-2.667 2.091-5.429 4.941-5.048h.19c2.755.286 6.08.667 10.26-5.143a11.587 11.587 0 0 1 1.62-1.9A1.368 1.368 0 0 1 52.3.479a1.383 1.383 0 0 1-.09 2A7.783 7.783 0 0 0 50.973 4c-5.03 7.047-9.88 6.571-12.825 6.285h-.19c-.665-.095-1.235 1.143-2 3.238a27.467 27.467 0 0 1-2.086 4.577c-3.04 5.048-6.745 5.714-12.636 2.476-4.276-2.381-4.846-1.714-8.171 1.9l-.855.952a8.752 8.752 0 0 1-6.746 2.956z" transform="translate(41.947 33.045)" style="fill:#ffdda1"/>
        <path id="Path-29" data-name="Path" class="cls-10" d="M6.556 1.524H.761A.751.751 0 0 1 0 .762.751.751 0 0 1 .761 0h5.8a.75.75 0 0 1 .76.762.75.75 0 0 1-.765.762z" transform="translate(44.18 34.571)"/>
        <path id="Path-30" data-name="Path" class="cls-10" d="M11.782 1.524H.761A.751.751 0 0 1 0 .762.75.75 0 0 1 .761 0h10.926a.75.75 0 0 1 .76.762.674.674 0 0 1-.665.762z" transform="translate(44.18 38.286)"/>
        <path id="Path-31" data-name="Path" d="M0 .5h97.1" transform="translate(14.727 94.262)" style="stroke:#8d89a3;stroke-linecap:round;stroke-linejoin:round;stroke-miterlimit:10;stroke-width:2px;fill:#e1dfeb"/>
        <g id="Сгруппировать_16835" data-name="Сгруппировать 16835" transform="translate(-30.364 -34.085)">
            <path id="Path-32" data-name="Path" class="cls-14" d="M35.62 21.675a16.093 16.093 0 0 1-1.293 3.9c-.183.188-.183.564-.367.735a11.958 11.958 0 0 1-1.66 2.59c-.185.376-.554.564-.738.94a15.93 15.93 0 0 1-5.537 4.26c-.369.188-.736.376-1.105.547-.738.188-1.292.564-2.03.752a18.67 18.67 0 0 1-8.486.359A18.046 18.046 0 0 1 21.6.387a17.99 17.99 0 0 1 14.02 21.288z" transform="translate(29.306 85.322)"/>
            <path id="Shape" class="cls-15" d="M12.11 30.107A15.344 15.344 0 0 1 .3 12.133 14.779 14.779 0 0 1 6.759 2.5 15.446 15.446 0 0 1 18.2.275a14.54 14.54 0 0 1 7.561 4.085 14.978 14.978 0 0 1 4.06 13.89 9.1 9.1 0 0 1-1.107 3.143c0 .189-.185.377-.369.564-.369.735-.923 1.487-1.292 2.22-.185.189-.369.547-.554.735a17.516 17.516 0 0 1-4.612 3.707 4.074 4.074 0 0 0-.923.564c-.738.171-1.292.547-1.661.547a10.361 10.361 0 0 1-4.056.75 17.9 17.9 0 0 1-3.137-.373z" transform="translate(32.154 88.2)"/>
            <g id="Сгруппировать_16833" data-name="Сгруппировать 16833" transform="translate(37.793 95.919)">
                <path id="Path-33" data-name="Path" class="cls-16" d="M22.494 16.574a10.458 10.458 0 0 1-1.476 2.409c-.185.376-.554.564-.738.923a15.781 15.781 0 0 1-5.534 4.271c-.369.188-.738.359-1.107.547-.738.188-1.292.564-2.03.752L.355 14.165V13.1l.536-1.939.546-1L-.5 2.818a37.886 37.886 0 0 0 4.362.429l1.847 2.147 2.283.4 6.754-4.614 8.486 13.361c.185.376-.738 1.845-.738 2.033z" transform="translate(2.953 -.695)"/>
                <g id="Сгруппировать_7579" data-name="Сгруппировать 7579">
                    <path id="Контур_22776" data-name="Контур 22776" class="cls-17" d="M328.649 197.582c-2.826-1.576-3.927-.345-4.176 1.845-.65-4.212.677-5.8 3.035-4.736a11.208 11.208 0 0 1 2.794 1.83 2.612 2.612 0 0 0 1.765.648" transform="translate(-322.685 -194.02)"/>
                    <path id="Контур_22777" data-name="Контур 22777" class="cls-17" d="M420.522 197.168a2.794 2.794 0 0 0 1.777-.67 11.984 11.984 0 0 1 2.834-1.808c2.362-1.068 3.69.524 3.039 4.736-.294.209-.582.42-.887.651.028-.663-.063-1.433-.073-2.012-.033-1.885-2.682-1.2-4.051.386-.795.922.287 2.182 1.523 3.02a4.447 4.447 0 0 0 .675.137c-.5.409-1.074.883-1.757 1.451-.859-.807-1.958-1.841-3.057-2.811" transform="translate(-411.152 -194.02)"/>
                    <path id="Контур_22778" data-name="Контур 22778" class="cls-17" d="M332.088 197.172a2.787 2.787 0 0 1-1.752-.67 11.975 11.975 0 0 0-2.83-1.808c-2.358-1.068-3.684.524-3.035 4.736.294.209.581.419.886.651-.027-.663.064-1.432.073-2.012.033-1.885 2.679-1.2 4.045.386.794.922-.287 2.183-1.521 3.02a4.5 4.5 0 0 1-.675.137c.5.409 1.072.883 1.754 1.451.858-.807 1.956-1.842 3.054-2.813s.001-3.078.001-3.078z" transform="translate(-322.683 -194.024)"/>
                    <path id="Контур_22779" data-name="Контур 22779" class="cls-17" d="M433.173 292.466a6.517 6.517 0 0 0 2.541 2.934c2.7 1.332 4.26-.74 3.577-2.967a6.411 6.411 0 0 0-3.241-3.7c-.45-.186-3.373 2.543-2.877 3.733zm1.223-1.973c.127-.713.471-.655.661-.573a4.15 4.15 0 0 1 2.028 1.962c.469 1.17-.336 1.905-1.385 1.223a2.626 2.626 0 0 1-1.3-2.612z" transform="translate(-422.732 -280.776)"/>
                    <path id="Контур_22780" data-name="Контур 22780" class="cls-17" d="M333.517 288.729a6.411 6.411 0 0 0-3.241 3.7c-.684 2.227.882 4.3 3.577 2.967a6.518 6.518 0 0 0 2.541-2.934c.496-1.186-2.429-3.915-2.877-3.733zm.349 4.376c-1.049.682-1.854-.053-1.385-1.223a4.15 4.15 0 0 1 2.028-1.962c.19-.081.535-.14.661.573a2.626 2.626 0 0 1-1.304 2.607z" transform="translate(-328.025 -280.776)"/>
                    <path id="Контур_22781" data-name="Контур 22781" class="cls-18" d="M318.132 190.714c5.151-1.784 2.109 7.351-4.581 7.351s-9.732-9.134-4.581-7.351c-5.614-2.916-7.069 4.391-.338 8.388 2 1.187 4.015 3.374 1.343 5.566 1.692-.842 2.111-2.364 3.576-2.364s1.884 1.522 3.576 2.364c-2.671-2.191-.656-4.378 1.343-5.566 6.73-3.997 5.276-11.302-.338-8.388z" transform="translate(-304.147 -190.044)"/>
                </g>
            </g>
        </g>
        <g id="Сгруппировать_16836" data-name="Сгруппировать 16836" transform="translate(64.497 -73.875)">
            <path id="Path-34" data-name="Path" class="cls-14" d="M17.825 10.847a8.053 8.053 0 0 1-.647 1.949c-.091.094-.091.282-.184.368a5.984 5.984 0 0 1-.831 1.3c-.092.188-.277.282-.369.47a7.971 7.971 0 0 1-2.77 2.129c-.185.094-.368.188-.553.274-.369.094-.646.282-1.016.376a9.343 9.343 0 0 1-4.247.18 9.03 9.03 0 0 1 3.6-17.7 9 9 0 0 1 7.017 10.653z" transform="translate(29.306 85.322)"/>
            <path id="Shape-2" data-name="Shape" class="cls-15" d="M6.06 15.066A7.678 7.678 0 0 1 .151 6.071a7.4 7.4 0 0 1 3.231-4.822A7.73 7.73 0 0 1 9.106.138a7.276 7.276 0 0 1 3.785 2.044 7.5 7.5 0 0 1 2.031 6.951 4.551 4.551 0 0 1-.554 1.573c0 .095-.092.189-.185.282-.185.368-.462.744-.646 1.111-.092.095-.185.274-.277.368a8.765 8.765 0 0 1-2.308 1.855 2.039 2.039 0 0 0-.462.282c-.369.085-.646.274-.831.274a5.185 5.185 0 0 1-2.03.376 8.955 8.955 0 0 1-1.569-.188z" transform="translate(30.731 86.762)"/>
            <g id="Сгруппировать_16833-2" data-name="Сгруппировать 16833" transform="translate(33.553 90.625)">
                <path id="Path-35" data-name="Path" class="cls-16" d="M11.006 8.883a5.233 5.233 0 0 1-.739 1.206c-.092.188-.277.282-.369.462a7.9 7.9 0 0 1-2.769 2.137c-.185.094-.369.18-.554.274-.369.094-.646.282-1.016.376l-5.632-5.66v-.534l.273-.97.273-.5L-.5 2a18.959 18.959 0 0 0 2.183.215l.925 1.074 1.142.2L7.129 1.18l4.247 6.686c.092.188-.37.923-.37 1.017z" transform="translate(1.728 -.937)"/>
                <g id="Сгруппировать_7579-2" data-name="Сгруппировать 7579">
                    <path id="Контур_22776-2" data-name="Контур 22776" class="cls-17" d="M326.48 195.976c-1.414-.789-1.965-.172-2.09.923-.325-2.108.339-2.9 1.518-2.37a5.61 5.61 0 0 1 1.4.916 1.307 1.307 0 0 0 .883.324" transform="translate(-323.496 -194.194)"/>
                    <path id="Контур_22777-2" data-name="Контур 22777" class="cls-17" d="M420.522 195.769a1.4 1.4 0 0 0 .889-.335 6 6 0 0 1 1.418-.9c1.182-.534 1.846.262 1.521 2.37-.147.1-.291.21-.444.326.014-.332-.032-.717-.037-1.007-.017-.943-1.342-.6-2.027.193-.4.461.144 1.092.762 1.511a2.225 2.225 0 0 0 .338.068c-.25.2-.537.442-.879.726-.43-.4-.98-.921-1.53-1.407" transform="translate(-415.833 -194.194)"/>
                    <path id="Контур_22778-2" data-name="Контур 22778" class="cls-17" d="M328.2 195.773a1.394 1.394 0 0 1-.877-.335 5.992 5.992 0 0 0-1.416-.9c-1.18-.534-1.844.262-1.519 2.37.147.1.291.21.443.326-.014-.332.032-.717.037-1.007.017-.943 1.34-.6 2.024.193.4.461-.143 1.092-.761 1.511a2.251 2.251 0 0 1-.338.068c.249.2.536.442.878.726.429-.4.979-.922 1.528-1.407s.001-1.545.001-1.545z" transform="translate(-323.494 -194.198)"/>
                    <path id="Контур_22779-2" data-name="Контур 22779" class="cls-17" d="M433.144 290.595a3.261 3.261 0 0 0 1.271 1.468c1.349.667 2.132-.37 1.79-1.485a3.208 3.208 0 0 0-1.622-1.853c-.223-.091-1.683 1.275-1.439 1.87zm.612-.987c.064-.357.236-.328.331-.287a2.077 2.077 0 0 1 1.015.982c.235.586-.168.953-.693.612a1.314 1.314 0 0 1-.652-1.308z" transform="translate(-427.92 -284.745)"/>
                    <path id="Контур_22780-2" data-name="Контур 22780" class="cls-17" d="M331.818 288.725a3.208 3.208 0 0 0-1.622 1.853c-.342 1.114.441 2.151 1.79 1.485a3.262 3.262 0 0 0 1.271-1.468c.249-.595-1.215-1.961-1.439-1.87zm.175 2.19c-.525.341-.928-.027-.693-.612a2.077 2.077 0 0 1 1.015-.982c.1-.041.268-.07.331.287a1.314 1.314 0 0 1-.654 1.307z" transform="translate(-329.07 -284.745)"/>
                    <path id="Контур_22781-2" data-name="Контур 22781" class="cls-18" d="M311.145 190.379c2.577-.892 1.055 3.678-2.293 3.678s-4.87-4.571-2.293-3.678c-2.809-1.459-3.537 2.2-.169 4.2 1 .594 2.009 1.689.672 2.785.847-.421 1.056-1.183 1.79-1.183s.943.762 1.789 1.183c-1.337-1.1-.328-2.191.672-2.785 3.369-2.002 2.641-5.659-.168-4.2z" transform="translate(-304.147 -190.044)"/>
                </g>
            </g>
        </g>
        <g id="Сгруппировать_16837" data-name="Сгруппировать 16837" transform="translate(80.458 -39.227)">
            <path id="Path-36" data-name="Path" class="cls-14" d="M23.835 14.5a10.768 10.768 0 0 1-.865 2.607c-.122.126-.122.377-.246.492a8 8 0 0 1-1.111 1.738c-.123.252-.37.377-.494.629a10.659 10.659 0 0 1-3.7 2.847c-.247.126-.493.252-.74.366-.494.126-.864.377-1.358.5a12.493 12.493 0 0 1-5.678.24A12.075 12.075 0 0 1 14.452.259 12.037 12.037 0 0 1 23.835 14.5z" transform="translate(29.306 85.322)"/>
            <path id="Shape-3" data-name="Shape" class="cls-15" d="M8.1 20.145A10.267 10.267 0 0 1 .2 8.118 9.889 9.889 0 0 1 4.523 1.67 10.336 10.336 0 0 1 12.176.184a9.729 9.729 0 0 1 5.061 2.733 10.022 10.022 0 0 1 2.716 9.294 6.086 6.086 0 0 1-.741 2.1c0 .127-.123.252-.247.378-.247.492-.617.995-.864 1.486-.123.127-.247.366-.37.492a11.72 11.72 0 0 1-3.086 2.481 2.726 2.726 0 0 0-.617.378c-.494.114-.864.366-1.111.366a6.933 6.933 0 0 1-2.714.5 11.975 11.975 0 0 1-2.103-.247z" transform="translate(31.211 87.248)"/>
            <g id="Сгруппировать_16833-3" data-name="Сгруппировать 16833" transform="translate(34.985 92.413)">
                <path id="Path-37" data-name="Path" class="cls-16" d="M14.886 11.481a7 7 0 0 1-.988 1.612c-.123.252-.37.377-.494.617a10.56 10.56 0 0 1-3.7 2.858c-.247.126-.494.24-.741.366-.494.126-.864.377-1.358.5L.072 9.869v-.713l.358-1.3.37-.665-1.3-4.915a25.351 25.351 0 0 0 2.919.287L3.654 4l1.527.27L9.7 1.18l5.68 8.94c.12.252-.494 1.235-.494 1.361z" transform="translate(2.141 -.856)"/>
                <g id="Сгруппировать_7579-3" data-name="Сгруппировать 7579">
                    <path id="Контур_22776-3" data-name="Контур 22776" class="cls-17" d="M327.213 196.518c-1.891-1.055-2.627-.231-2.794 1.234-.435-2.818.453-3.884 2.03-3.169a7.5 7.5 0 0 1 1.87 1.224 1.748 1.748 0 0 0 1.181.433" transform="translate(-323.222 -194.136)"/>
                    <path id="Контур_22777-3" data-name="Контур 22777" class="cls-17" d="M420.522 196.242a1.869 1.869 0 0 0 1.189-.448 8.02 8.02 0 0 1 1.9-1.21c1.58-.715 2.469.351 2.034 3.169-.2.14-.39.281-.593.435.019-.444-.042-.959-.049-1.346-.022-1.261-1.795-.8-2.711.258-.532.617.192 1.46 1.019 2.021a2.975 2.975 0 0 0 .452.091c-.334.273-.718.591-1.176.971-.575-.54-1.31-1.232-2.045-1.881" transform="translate(-414.252 -194.136)"/>
                    <path id="Контур_22778-3" data-name="Контур 22778" class="cls-17" d="M329.513 196.245a1.865 1.865 0 0 1-1.172-.448 8.013 8.013 0 0 0-1.894-1.21c-1.578-.714-2.465.351-2.031 3.169.2.14.389.281.593.435-.018-.444.043-.958.049-1.346.022-1.261 1.792-.8 2.707.258.531.617-.192 1.46-1.018 2.021a3.009 3.009 0 0 1-.451.092c.333.274.717.591 1.174.971.574-.54 1.309-1.232 2.043-1.882s0-2.06 0-2.06z" transform="translate(-323.22 -194.139)"/>
                    <path id="Контур_22779-3" data-name="Контур 22779" class="cls-17" d="M433.154 291.227a4.361 4.361 0 0 0 1.7 1.963c1.8.891 2.851-.5 2.393-1.985a4.29 4.29 0 0 0-2.168-2.478c-.3-.127-2.257 1.703-1.925 2.5zm.819-1.32c.085-.477.315-.438.443-.383a2.777 2.777 0 0 1 1.357 1.313c.314.783-.224 1.275-.927.818a1.757 1.757 0 0 1-.873-1.749z" transform="translate(-426.168 -283.405)"/>
                    <path id="Контур_22780-3" data-name="Контур 22780" class="cls-17" d="M332.392 288.726a4.29 4.29 0 0 0-2.168 2.478c-.457 1.49.59 2.876 2.393 1.985a4.361 4.361 0 0 0 1.7-1.963c.331-.796-1.625-2.626-1.925-2.5zm.233 2.928c-.7.456-1.24-.036-.927-.818a2.777 2.777 0 0 1 1.357-1.313c.127-.055.358-.094.443.383a1.757 1.757 0 0 1-.873 1.748z" transform="translate(-328.717 -283.405)"/>
                    <path id="Контур_22781-3" data-name="Контур 22781" class="cls-18" d="M313.5 190.492c3.446-1.193 1.411 4.919-3.066 4.919s-6.512-6.112-3.066-4.919c-3.756-1.951-4.73 2.938-.226 5.613 1.338.795 2.686 2.258.9 3.724 1.132-.563 1.412-1.582 2.393-1.582s1.261 1.019 2.393 1.582c-1.787-1.466-.439-2.93.9-3.724 4.507-2.674 3.533-7.564-.228-5.613z" transform="translate(-304.147 -190.044)"/>
                </g>
            </g>
        </g>
    </g>
</svg>
