<svg xmlns="http://www.w3.org/2000/svg" xmlns:xlink="http://www.w3.org/1999/xlink" width="125.78" height="87.076" viewBox="0 0 125.78 87.076">
    <defs>
        <linearGradient id="linear-gradient" x1=".001" x2=".999" y1=".501" y2=".501" gradientUnits="objectBoundingBox">
            <stop offset=".003" stop-color="#ffd44f"/>
            <stop offset="1" stop-color="#ffa607"/>
        </linearGradient>
        <linearGradient id="linear-gradient-2" x1=".238" x2=".601" y1=".349" y2=".664" gradientUnits="objectBoundingBox">
            <stop offset="0" stop-color="#faa404"/>
            <stop offset="1" stop-color="#ff7904" stop-opacity="0"/>
        </linearGradient>
        <linearGradient id="linear-gradient-3" x1=".778" x2=".358" y1=".852" y2=".141" gradientUnits="objectBoundingBox">
            <stop offset="0" stop-color="#ffe491"/>
            <stop offset="1" stop-color="#fff"/>
        </linearGradient>
        <linearGradient id="linear-gradient-4" x1=".001" x2=".999" y1=".501" y2=".501" gradientUnits="objectBoundingBox">
            <stop offset="0" stop-color="#f3f3f6"/>
            <stop offset="1" stop-color="#dcddea"/>
        </linearGradient>
        <linearGradient id="linear-gradient-5" x1=".238" x2=".601" y1=".349" y2=".664" gradientUnits="objectBoundingBox">
            <stop offset="0" stop-color="#b5b7cb"/>
            <stop offset="1" stop-color="#b5b7cb" stop-opacity="0"/>
        </linearGradient>
        <linearGradient id="linear-gradient-6" x1=".778" x2=".358" y1=".852" y2=".141" xlink:href="#linear-gradient-4"/>
        <style>
            .cls-3{fill:#e1dfeb}.cls-7{fill:#ffc436}.cls-12{fill:#d9d5f0}
        </style>
    </defs>
    <g id="_33" transform="translate(-1.234 -6.89)">
        <path id="Path" fill="#272430" d="M43.819 87.076A43.539 43.539 0 1 0 0 43.538a43.683 43.683 0 0 0 43.819 43.538z" transform="translate(17.902 6.89)"/>
        <path id="Path-2" fill="#1a1723" d="M18.1 35.966A17.983 17.983 0 1 0 0 17.983a18.041 18.041 0 0 0 18.1 17.983z" transform="translate(43.62 32.445)"/>
        <path id="Path-3" d="M2.626.172L2.315.055A1.825 1.825 0 0 0 .058 1.337a1.792 1.792 0 0 0 1.283 2.234l.31.116a1.777 1.777 0 0 0 .961.064A1.8 1.8 0 0 0 3.93 2.5 2.026 2.026 0 0 0 2.626.172z" class="cls-3" transform="translate(68.622 18.982)"/>
        <path id="Path-4" d="M7.935 11.955A1.882 1.882 0 0 0 9.369 10.4a1.9 1.9 0 0 0-1.622-2.067l-1.16-.106a27.628 27.628 0 0 1 17.021-4.533 1.855 1.855 0 0 0 1.973-1.673 1.849 1.849 0 0 0-1.69-1.96 30.792 30.792 0 0 0-19.562 5.4l.177-1.271a1.9 1.9 0 0 0-1.62-2.065A1.915 1.915 0 0 0 .8 3.736l-.782 5.55a1.9 1.9 0 0 0 1.62 2.065l5.647.667c.18-.042.47-.018.65-.063z" class="cls-3" transform="translate(40.467 17.97)"/>
        <path id="Path-5" d="M2.824.307L2.6.169a1.816 1.816 0 0 0-2.429.943 1.785 1.785 0 0 0 .945 2.415l.311.116a1.8 1.8 0 0 0 1.161.106A1.931 1.931 0 0 0 3.859 2.7 1.871 1.871 0 0 0 2.824.307z" class="cls-3" transform="translate(49.533 76.386)"/>
        <path id="Path-6" d="M25.032 1.483L19.488.054a1.9 1.9 0 0 0-2.257 1.271 1.884 1.884 0 0 0 1.283 2.245l1.113.307A27.555 27.555 0 0 1 2.173 6.154a1.75 1.75 0 0 0-2.126 1.43 1.737 1.737 0 0 0 1.442 2.107 31.21 31.21 0 0 0 13.106-.222 28.508 28.508 0 0 0 6.973-2.563l-.357 1.3a1.891 1.891 0 0 0 1.284 2.245 1.365 1.365 0 0 0 .849-.011 1.959 1.959 0 0 0 1.386-1.353l1.453-5.517a1.493 1.493 0 0 0-1.151-2.087z" class="cls-3" transform="translate(55.771 72.159)"/>
        <g id="Сгруппировать_16889" transform="translate(79.605 26.425)">
            <path id="Path-7" fill="url(#linear-gradient)" d="M46.879 28.527a21.179 21.179 0 0 1-1.7 5.127c-.241.247-.241.742-.483.967a15.737 15.737 0 0 1-2.186 3.418c-.243.495-.729.742-.971 1.237a20.965 20.965 0 0 1-7.285 5.6c-.486.247-.969.495-1.455.72-.971.247-1.7.742-2.671.989a24.571 24.571 0 0 1-11.169.472A23.75 23.75 0 0 1 28.425.509a23.676 23.676 0 0 1 18.454 28.018z" transform="translate(0 0)"/>
            <path id="Shape" fill="#f9b400" d="M15.938 39.623A20.194 20.194 0 0 1 .4 15.967 19.45 19.45 0 0 1 8.9 3.285 20.329 20.329 0 0 1 23.948.362 19.135 19.135 0 0 1 33.9 5.737a19.712 19.712 0 0 1 5.343 18.28 11.969 11.969 0 0 1-1.457 4.137c0 .249-.243.5-.486.743-.486.967-1.214 1.957-1.7 2.922-.243.249-.486.72-.729.967a23.052 23.052 0 0 1-6.069 4.879 5.362 5.362 0 0 0-1.214.743c-.971.225-1.7.72-2.186.72a13.636 13.636 0 0 1-5.339.988 23.552 23.552 0 0 1-4.125-.493z" transform="translate(3.748 3.787)"/>
            <g id="Сгруппировать_16833" transform="translate(11.17 13.946)">
                <path id="Path-8" fill="url(#linear-gradient-2)" d="M29.763 21.44a13.764 13.764 0 0 1-1.943 3.171c-.243.495-.729.742-.971 1.214a20.769 20.769 0 0 1-7.283 5.621c-.486.247-.971.472-1.457.72-.971.247-1.7.742-2.671.989L.626 18.27v-1.4l.7-2.552L2.048 13-.5 3.336s5.983.812 5.741.565l2.431 2.826 3 .531 8.893-6.078 11.169 17.584c.243.495-.971 2.429-.971 2.676z" transform="translate(3.727 -0.542)"/>
                <g id="Сгруппировать_7579" transform="translate(0 0)">
                    <path id="Контур_22776" d="M330.021 198.6c-3.719-2.075-5.168-.454-5.5 2.428-.855-5.543.89-7.638 3.994-6.233a14.751 14.751 0 0 1 3.685 2.405 3.438 3.438 0 0 0 2.322.852" class="cls-7" transform="translate(-322.172 -193.91)"/>
                    <path id="Контур_22777" d="M420.522 198.053a3.677 3.677 0 0 0 2.338-.882 15.772 15.772 0 0 1 3.73-2.379c3.108-1.405 4.856.69 4 6.233-.387.275-.766.552-1.167.856.037-.873-.083-1.886-.1-2.648-.044-2.481-3.53-1.581-5.332.508-1.046 1.213.378 2.872 2.005 3.975a5.853 5.853 0 0 0 .889.18c-.658.538-1.413 1.162-2.313 1.909-1.131-1.062-2.577-2.422-4.023-3.7" class="cls-7" transform="translate(-408.191 -193.91)"/>
                    <path id="Контур_22778" d="M334.547 198.056a3.667 3.667 0 0 1-2.306-.881 15.761 15.761 0 0 0-3.724-2.379c-3.1-1.405-4.849.69-3.994 6.233.387.274.765.552 1.166.856-.036-.873.084-1.885.1-2.648.043-2.481 3.525-1.581 5.324.508 1.045 1.213-.377 2.873-2 3.975a5.92 5.92 0 0 1-.888.18c.656.538 1.41 1.162 2.309 1.909 1.129-1.062 2.574-2.424 4.019-3.7s-.006-4.053-.006-4.053z" class="cls-7" transform="translate(-322.17 -193.914)"/>
                    <path id="Контур_22779" d="M433.19 293.65a8.577 8.577 0 0 0 3.344 3.861c3.547 1.753 5.607-.974 4.708-3.9a8.438 8.438 0 0 0-4.265-4.874c-.59-.245-4.439 3.346-3.787 4.913zm1.61-2.6c.167-.939.62-.861.87-.754a5.462 5.462 0 0 1 2.669 2.582c.617 1.54-.442 2.508-1.823 1.61a3.456 3.456 0 0 1-1.716-3.435z" class="cls-7" transform="translate(-419.45 -278.265)"/>
                    <path id="Контур_22780" d="M334.592 288.732a8.437 8.437 0 0 0-4.265 4.874c-.9 2.93 1.16 5.658 4.708 3.9a8.578 8.578 0 0 0 3.344-3.861c.651-1.562-3.197-5.153-3.787-4.913zm.459 5.759c-1.381.9-2.44-.07-1.823-1.61a5.462 5.462 0 0 1 2.672-2.581c.25-.107.7-.185.87.754a3.456 3.456 0 0 1-1.719 3.437z" class="cls-7" transform="translate(-327.364 -278.265)"/>
                    <path id="Контур_22781" fill="url(#linear-gradient-3)" d="M322.553 190.926c6.779-2.347 2.775 9.674-6.03 9.674s-12.809-12.022-6.03-9.674c-7.388-3.838-9.3 5.779-.445 11.039 2.632 1.563 5.283 4.441 1.768 7.325 2.227-1.108 2.778-3.112 4.706-3.112s2.48 2 4.706 3.112c-3.515-2.884-.864-5.762 1.768-7.325 8.86-5.26 6.945-14.877-.443-11.039z" transform="translate(-304.147 -190.044)"/>
                </g>
            </g>
        </g>
        <g id="Сгруппировать_16890" transform="translate(1.234 26.425)">
            <path id="Path-9" fill="url(#linear-gradient-4)" d="M46.879 28.527a21.179 21.179 0 0 1-1.7 5.127c-.241.247-.241.742-.483.967a15.737 15.737 0 0 1-2.186 3.418c-.243.495-.729.742-.971 1.237a20.965 20.965 0 0 1-7.285 5.6c-.486.247-.969.495-1.455.72-.971.247-1.7.742-2.671.989a24.571 24.571 0 0 1-11.169.472A23.75 23.75 0 0 1 28.425.509a23.676 23.676 0 0 1 18.454 28.018z" transform="translate(0 0)"/>
            <path id="Shape-2" fill="#c4c6dd" d="M15.938 39.623A20.194 20.194 0 0 1 .4 15.967 19.45 19.45 0 0 1 8.9 3.285 20.329 20.329 0 0 1 23.948.362 19.135 19.135 0 0 1 33.9 5.737a19.712 19.712 0 0 1 5.343 18.28 11.969 11.969 0 0 1-1.457 4.137c0 .249-.243.5-.486.743-.486.967-1.214 1.957-1.7 2.922-.243.249-.486.72-.729.967a23.052 23.052 0 0 1-6.069 4.879 5.362 5.362 0 0 0-1.214.743c-.971.225-1.7.72-2.186.72a13.636 13.636 0 0 1-5.339.988 23.552 23.552 0 0 1-4.125-.493z" transform="translate(3.748 3.787)"/>
            <g id="Сгруппировать_16833-2" transform="translate(11.17 13.946)">
                <path id="Path-10" fill="url(#linear-gradient-5)" d="M29.763 21.44a13.764 13.764 0 0 1-1.943 3.171c-.243.495-.729.742-.971 1.214a20.769 20.769 0 0 1-7.283 5.621c-.486.247-.971.472-1.457.72-.971.247-1.7.742-2.671.989L.626 18.27v-1.4l.7-2.552L2.048 13-.5 3.336s5.983.812 5.741.565l2.431 2.826 3 .531 8.893-6.078 11.169 17.584c.243.495-.971 2.429-.971 2.676z" transform="translate(3.727 -0.542)"/>
                <g id="Сгруппировать_7579-2" transform="translate(0 0)">
                    <path id="Контур_22776-2" d="M330.021 198.6c-3.719-2.075-5.168-.454-5.5 2.428-.855-5.543.89-7.638 3.994-6.233a14.751 14.751 0 0 1 3.685 2.405 3.438 3.438 0 0 0 2.322.852" class="cls-12" transform="translate(-322.172 -193.91)"/>
                    <path id="Контур_22777-2" d="M420.522 198.053a3.677 3.677 0 0 0 2.338-.882 15.772 15.772 0 0 1 3.73-2.379c3.108-1.405 4.856.69 4 6.233-.387.275-.766.552-1.167.856.037-.873-.083-1.886-.1-2.648-.044-2.481-3.53-1.581-5.332.508-1.046 1.213.378 2.872 2.005 3.975a5.853 5.853 0 0 0 .889.18c-.658.538-1.413 1.162-2.313 1.909-1.131-1.062-2.577-2.422-4.023-3.7" class="cls-12" transform="translate(-408.191 -193.91)"/>
                    <path id="Контур_22778-2" d="M334.547 198.056a3.667 3.667 0 0 1-2.306-.881 15.761 15.761 0 0 0-3.724-2.379c-3.1-1.405-4.849.69-3.994 6.233.387.274.765.552 1.166.856-.036-.873.084-1.885.1-2.648.043-2.481 3.525-1.581 5.324.508 1.045 1.213-.377 2.873-2 3.975a5.92 5.92 0 0 1-.888.18c.656.538 1.41 1.162 2.309 1.909 1.129-1.062 2.574-2.424 4.019-3.7s-.006-4.053-.006-4.053z" class="cls-12" transform="translate(-322.17 -193.914)"/>
                    <path id="Контур_22779-2" d="M433.19 293.65a8.577 8.577 0 0 0 3.344 3.861c3.547 1.753 5.607-.974 4.708-3.9a8.438 8.438 0 0 0-4.265-4.874c-.59-.245-4.439 3.346-3.787 4.913zm1.61-2.6c.167-.939.62-.861.87-.754a5.462 5.462 0 0 1 2.669 2.582c.617 1.54-.442 2.508-1.823 1.61a3.456 3.456 0 0 1-1.716-3.435z" class="cls-12" transform="translate(-419.45 -278.265)"/>
                    <path id="Контур_22780-2" d="M334.592 288.732a8.437 8.437 0 0 0-4.265 4.874c-.9 2.93 1.16 5.658 4.708 3.9a8.578 8.578 0 0 0 3.344-3.861c.651-1.562-3.197-5.153-3.787-4.913zm.459 5.759c-1.381.9-2.44-.07-1.823-1.61a5.462 5.462 0 0 1 2.672-2.581c.25-.107.7-.185.87.754a3.456 3.456 0 0 1-1.719 3.437z" class="cls-12" transform="translate(-327.364 -278.265)"/>
                    <path id="Контур_22781-2" fill="url(#linear-gradient-6)" d="M322.553 190.926c6.779-2.347 2.775 9.674-6.03 9.674s-12.809-12.022-6.03-9.674c-7.388-3.838-9.3 5.779-.445 11.039 2.632 1.563 5.283 4.441 1.768 7.325 2.227-1.108 2.778-3.112 4.706-3.112s2.48 2 4.706 3.112c-3.515-2.884-.864-5.762 1.768-7.325 8.86-5.26 6.945-14.877-.443-11.039z" transform="translate(-304.147 -190.044)"/>
                </g>
            </g>
        </g>
    </g>
</svg>
