<svg xmlns="http://www.w3.org/2000/svg" width="92.142" height="96.26" viewBox="0 0 92.142 96.26">
    <defs>
        <linearGradient id="linear-gradient" x1=".001" x2=".999" y1=".501" y2=".501" gradientUnits="objectBoundingBox">
            <stop offset=".003" stop-color="#ffd44f"/>
            <stop offset="1" stop-color="#ffa607"/>
        </linearGradient>
        <linearGradient id="linear-gradient-2" x1=".238" x2=".601" y1=".349" y2=".664" gradientUnits="objectBoundingBox">
            <stop offset="0" stop-color="#faa404"/>
            <stop offset="1" stop-color="#ff7904" stop-opacity="0"/>
        </linearGradient>
        <linearGradient id="linear-gradient-3" x1=".778" x2=".358" y1=".852" y2=".141" gradientUnits="objectBoundingBox">
            <stop offset="0" stop-color="#ffe491"/>
            <stop offset="1" stop-color="#fff"/>
        </linearGradient>
        <linearGradient id="linear-gradient-4" x1=".5" x2=".5" y1="1.03" y2="-.014" gradientUnits="objectBoundingBox">
            <stop offset=".003" stop-color="#132538"/>
            <stop offset="1" stop-color="#132538" stop-opacity="0"/>
        </linearGradient>
        <style>
            .cls-1{fill:#f6f7f9}.cls-2{fill:#fff}.cls-3{fill:#e6ebf0}.cls-4{fill:none;stroke:#e4e7ed;stroke-miterlimit:10}.cls-5{fill:#2d5887}.cls-12{fill:#ffc436}
        </style>
    </defs>
    <g id="_42" transform="translate(0.266)">
        <g id="Group" transform="translate(0.234)">
            <path id="Path" d="M21.1 15.238a4.891 4.891 0 0 1-2.064.778 5.371 5.371 0 0 1-3.994-.89 2.67 2.67 0 0 1-.456-.353A5.044 5.044 0 0 1 7.4 14.34 4.068 4.068 0 0 1 0 11.958 4.131 4.131 0 0 1 1.689 8.63a3.949 3.949 0 0 1 2.144-.778A4.447 4.447 0 0 1 3.7 6.793a3.912 3.912 0 0 1 3.27-3.866 3.716 3.716 0 0 1 .616-.056 3.862 3.862 0 0 1 1.769.429c.054-.136.107-.241.161-.353A5.1 5.1 0 0 1 14.126 0a4.6 4.6 0 0 1 1.528.249 5.145 5.145 0 0 1 3.4 3.593 4.693 4.693 0 0 1 .16 1.219 5.373 5.373 0 0 1 3.619 2.462 5.533 5.533 0 0 1 .777 2.061 5.769 5.769 0 0 1-2.51 5.654z" class="cls-1" transform="translate(50.848 68.236)"/>
            <path id="Path-2" d="M4.374 3.857a.572.572 0 0 0-.215-.273c-.187-.1-.482 0-.643-.16a.494.494 0 0 1-.107-.241C3.3 2.589 3.677 1.86 3.3 1.37c-.08-.112-.188-.192-.268-.3C2.819.745 2.846.392 2.5.175A1.6 1.6 0 0 0 1.372.047a2.01 2.01 0 0 0-1.34 2.19.54.54 0 0 0 .214.377c.348.241.938-.3 1.206.024.134.136.08.353.054.545-.081.457-.161.922-.215 1.355a1.141 1.141 0 0 0 .054.593 1 1 0 0 0 .563.433 2.159 2.159 0 0 0 1.823-.08 1.447 1.447 0 0 0 .643-1.627z" class="cls-2" transform="translate(55.936 73.065)"/>
            <path id="Path-3" d="M1.514 0a.507.507 0 0 0-.188.024A1.5 1.5 0 0 0 .174 2.217a1 1 0 0 0 .563.626c.268.08.643-.112.617-.409 0-.08-.054-.16-.054-.241a.708.708 0 0 1 .214-.626 1.3 1.3 0 0 1 .59-.321.968.968 0 0 0 .375-.192.546.546 0 0 0 .081-.537A1.085 1.085 0 0 0 1.514 0z" class="cls-2" transform="translate(53.488 77.897)"/>
            <path id="Path-4" d="M4.209.109a1.175 1.175 0 0 0-.322-.08C2.387-.083.618.053.108 1.786a2.806 2.806 0 0 0-.053 1.331 1.714 1.714 0 0 0 .241.73.8.8 0 0 0 .643.4.906.906 0 0 0 .67-.321 5.537 5.537 0 0 0 .4-.65 2.528 2.528 0 0 1 1.664-1.49 1.465 1.465 0 0 0 .617-.136c.4-.241.375-.834.16-1.243a.688.688 0 0 0-.241-.298z" class="cls-2" transform="translate(61.301 70.428)"/>
            <path id="Path-5" d="M4.482.087c-.429.16-.59.706-.778 1.139A3.543 3.543 0 0 1 1.506 3.2c-.429.136-2.171.329-1.233 1.027a3.66 3.66 0 0 0 1.581.81A2.7 2.7 0 0 0 3.7 4.474 5.133 5.133 0 0 0 5.554 1.9 2.048 2.048 0 0 0 5.607.633a.867.867 0 0 0-.991-.6c-.08.054-.108.054-.134.054z" class="cls-2" transform="translate(59.635 77.404)"/>
            <path id="Path-6" d="M2.948.606a.875.875 0 0 0-.376-.385A1.583 1.583 0 0 0 1.42.036 2.24 2.24 0 0 0 .24 3.148c.054.1.161.241.3.241a.412.412 0 0 0 .241-.08c.483-.353.188-1.243.67-1.6.375-.241.858 0 1.314-.024a.308.308 0 0 0 .16-.056c.054-.056.054-.136.08-.192a1.747 1.747 0 0 0-.057-.831z" class="cls-2" transform="translate(67.924 75.265)"/>
            <path id="Path-7" d="M1.8.679C1.4.382-.53-.749.14.791a1.461 1.461 0 0 0 .778.593c.214.08.4.192.616.273a.628.628 0 0 0 .537.056.463.463 0 0 0 .16-.569A1.391 1.391 0 0 0 1.8.679z" class="cls-2" transform="translate(66.388 81.681)"/>
            <path id="Path-8" d="M0 .048A4.9 4.9 0 0 1 .617 0a3.864 3.864 0 0 1 1.769.433C2.44.3 2.493.184 2.546.08a10.845 10.845 0 0 0 .161 3.593C1.421 2.863 1.287.834 0 .048z" class="cls-3" transform="translate(57.737 71.163)"/>
            <path id="Path-9" d="M21.1 15.022a4.891 4.891 0 0 1-2.064.778 12.775 12.775 0 0 1-1.26-1.837c-.482-.674-1.42-1.219-2.117-.786a1.618 1.618 0 0 0-.643 1.412 1.314 1.314 0 0 0 .026.321 2.67 2.67 0 0 1-.456-.353 5.044 5.044 0 0 1-7.186-.433A4.068 4.068 0 0 1 0 11.742a4.131 4.131 0 0 1 1.689-3.329A2.867 2.867 0 0 1 1.528 9.9a3.559 3.559 0 0 0 2.439 4.034 1.311 1.311 0 0 0 1.019-.056.679.679 0 0 0 .3-.89c-.08-.112-.188-.192-.188-.3-.054-.273.322-.385.563-.353 1.1.136 1.9 1.051 2.868 1.62a4.592 4.592 0 0 0 4.717-.136 5.079 5.079 0 0 0 2.274-4.187 9.112 9.112 0 0 1 .054-2.7c.294-1.059 1.26-1.813 1.5-2.9a2.431 2.431 0 0 0-.509-2.053C16.217 1.6 15.734 1.3 15.52.81a.867.867 0 0 1 .107-.81 5.14 5.14 0 0 1 3.4 3.6 3.5 3.5 0 0 0-.911 1.275c-.134.321-.161.7-.3 1.027a4.826 4.826 0 0 1-.456.834 4.813 4.813 0 0 0 .92 5.764 2.764 2.764 0 0 0 1.9.81 2.6 2.6 0 0 0 2.064-1.436 9.989 9.989 0 0 0 .831-2.486.341.341 0 0 1 .054-.16c.134-.136.348-.032.482.136a5.769 5.769 0 0 1-2.511 5.658z" class="cls-3" transform="translate(50.848 68.452)"/>
            <path id="Path-10" d="M21.1 15.238a4.891 4.891 0 0 1-2.064.778 5.371 5.371 0 0 1-3.994-.89 2.67 2.67 0 0 1-.456-.353A5.044 5.044 0 0 1 7.4 14.34 4.068 4.068 0 0 1 0 11.958 4.131 4.131 0 0 1 1.689 8.63a3.949 3.949 0 0 1 2.144-.778A4.447 4.447 0 0 1 3.7 6.793a3.912 3.912 0 0 1 3.27-3.866 3.716 3.716 0 0 1 .616-.056 3.862 3.862 0 0 1 1.769.429c.054-.136.107-.241.161-.353A5.1 5.1 0 0 1 14.126 0a4.6 4.6 0 0 1 1.528.249 5.145 5.145 0 0 1 3.4 3.593 4.693 4.693 0 0 1 .16 1.219 5.373 5.373 0 0 1 3.619 2.462 5.533 5.533 0 0 1 .777 2.061 5.769 5.769 0 0 1-2.51 5.654z" class="cls-4" transform="translate(50.848 68.236)"/>
            <path id="Path-11" d="M21.1 15.238a5.01 5.01 0 0 1-2.064.786 5.374 5.374 0 0 1-3.993-.9 2.64 2.64 0 0 1-.456-.353 5.052 5.052 0 0 1-7.187-.423A4.072 4.072 0 0 1 0 11.966a4.12 4.12 0 0 1 1.689-3.328 3.96 3.96 0 0 1 2.145-.786A4.406 4.406 0 0 1 3.7 6.793a3.912 3.912 0 0 1 3.27-3.866 3.717 3.717 0 0 1 .617-.056 3.858 3.858 0 0 1 1.768.429c.054-.136.107-.241.161-.353A5.1 5.1 0 0 1 14.126 0a4.811 4.811 0 0 1 1.528.249 5.139 5.139 0 0 1 3.4 3.6 4.555 4.555 0 0 1 .16 1.211 5.4 5.4 0 0 1 3.619 2.462 5.521 5.521 0 0 1 .778 2.061 5.808 5.808 0 0 1-2.511 5.655z" class="cls-1" transform="translate(0 24.943)"/>
            <path id="Path-12" d="M4.374 3.853a.515.515 0 0 0-.214-.265c-.188-.112-.483 0-.643-.168a.455.455 0 0 1-.107-.241c-.11-.593.267-1.323-.11-1.813-.08-.1-.188-.192-.268-.3C2.82.741 2.846.4 2.5.179A1.6 1.6 0 0 0 1.372.043a2.016 2.016 0 0 0-1.34 2.19.54.54 0 0 0 .214.377c.349.249.938-.3 1.206.032.134.128.081.345.054.537-.08.457-.16.922-.214 1.355a1.125 1.125 0 0 0 .054.593 1 1 0 0 0 .562.433 2.159 2.159 0 0 0 1.823-.08 1.377 1.377 0 0 0 .643-1.627z" class="cls-2" transform="translate(5.061 29.776)"/>
            <path id="Path-13" d="M1.514 0a.388.388 0 0 0-.188.032 1.5 1.5 0 0 0-1.152 2.19 1 1 0 0 0 .563.626c.268.08.643-.112.617-.409 0-.08-.054-.16-.054-.241a.7.7 0 0 1 .214-.626 1.235 1.235 0 0 1 .586-.321.957.957 0 0 0 .375-.192.545.545 0 0 0 .085-.538A1.239 1.239 0 0 0 1.514 0z" class="cls-2" transform="translate(2.64 34.575)"/>
            <path id="Path-14" d="M4.209.107a1.175 1.175 0 0 0-.322-.08C2.387-.078.618.051.108 1.783a2.806 2.806 0 0 0-.053 1.331 1.7 1.7 0 0 0 .241.73.8.8 0 0 0 .643.4.876.876 0 0 0 .67-.321 5.437 5.437 0 0 0 .4-.65 2.548 2.548 0 0 1 1.664-1.49 1.592 1.592 0 0 0 .617-.128A.957.957 0 0 0 4.451.4a.948.948 0 0 0-.242-.293z" class="cls-2" transform="translate(10.453 27.138)"/>
            <path id="Path-15" d="M4.482.08c-.429.168-.59.706-.778 1.139a3.543 3.543 0 0 1-2.2 1.973c-.429.136-2.171.329-1.234 1.027a3.683 3.683 0 0 0 1.582.818 2.752 2.752 0 0 0 1.848-.57 5.093 5.093 0 0 0 1.854-2.574A2.048 2.048 0 0 0 5.607.625a.861.861 0 0 0-.991-.593.469.469 0 0 1-.134.048z" class="cls-2" transform="translate(8.786 34.118)"/>
            <path id="Path-16" d="M2.947.6a.849.849 0 0 0-.375-.373A1.587 1.587 0 0 0 1.419.035 2.239 2.239 0 0 0 .24 3.147c.054.1.16.241.294.241a.412.412 0 0 0 .241-.08c.483-.353.188-1.243.67-1.6.375-.241.857 0 1.313-.024a.313.313 0 0 0 .161-.056c.054-.056.054-.136.08-.192A1.444 1.444 0 0 0 2.947.6z" class="cls-2" transform="translate(17.049 31.974)"/>
            <path id="Path-17" d="M1.8.686C1.4.381-.53-.749.14.791a1.459 1.459 0 0 0 .777.593c.215.08.4.192.617.273a.626.626 0 0 0 .536.056.461.461 0 0 0 .161-.569A.95.95 0 0 0 1.8.686z" class="cls-2" transform="translate(15.514 38.388)"/>
            <path id="Path-18" d="M0 .056A3.726 3.726 0 0 1 .617 0a3.864 3.864 0 0 1 1.769.433 3.763 3.763 0 0 1 .16-.353 10.9 10.9 0 0 0 .161 3.6C1.394 2.863 1.286.834 0 .056z" class="cls-3" transform="translate(6.889 27.87)"/>
            <path id="Path-19" d="M21.1 15.022a5.01 5.01 0 0 1-2.064.786 13.25 13.25 0 0 1-1.259-1.845c-.483-.674-1.421-1.219-2.118-.786a1.618 1.618 0 0 0-.643 1.412 1.277 1.277 0 0 0 .027.321 2.64 2.64 0 0 1-.456-.353 5.052 5.052 0 0 1-7.187-.425A4.072 4.072 0 0 1 0 11.75a4.12 4.12 0 0 1 1.689-3.329A2.846 2.846 0 0 1 1.528 9.9a3.559 3.559 0 0 0 2.44 4.034 1.311 1.311 0 0 0 1.019-.056.679.679 0 0 0 .294-.89c-.08-.112-.188-.192-.188-.3-.053-.273.322-.385.563-.353 1.1.136 1.9 1.051 2.868 1.62a4.592 4.592 0 0 0 4.717-.136 5.079 5.079 0 0 0 2.279-4.187 9.112 9.112 0 0 1 .054-2.7c.3-1.051 1.26-1.813 1.5-2.9a2.436 2.436 0 0 0-.509-2.053A4.848 4.848 0 0 1 15.52.818.882.882 0 0 1 15.627 0a5.169 5.169 0 0 1 3.4 3.6 3.583 3.583 0 0 0-.911 1.275c-.134.321-.16.7-.294 1.027a5.22 5.22 0 0 1-.456.842 4.8 4.8 0 0 0 .912 5.759 2.728 2.728 0 0 0 1.9.81 2.6 2.6 0 0 0 2.064-1.436 9.924 9.924 0 0 0 .831-2.486.384.384 0 0 1 .054-.16c.134-.136.348-.024.483.136a5.808 5.808 0 0 1-2.51 5.655z" class="cls-3" transform="translate(0 25.159)"/>
            <path id="Path-20" d="M21.1 15.238a5.01 5.01 0 0 1-2.064.786 5.374 5.374 0 0 1-3.993-.9 2.64 2.64 0 0 1-.456-.353 5.052 5.052 0 0 1-7.187-.423A4.072 4.072 0 0 1 0 11.966a4.12 4.12 0 0 1 1.689-3.328 3.96 3.96 0 0 1 2.145-.786A4.406 4.406 0 0 1 3.7 6.793a3.912 3.912 0 0 1 3.27-3.866 3.717 3.717 0 0 1 .617-.056 3.858 3.858 0 0 1 1.768.429c.054-.136.107-.241.161-.353A5.1 5.1 0 0 1 14.126 0a4.811 4.811 0 0 1 1.528.249 5.139 5.139 0 0 1 3.4 3.6 4.555 4.555 0 0 1 .16 1.211 5.4 5.4 0 0 1 3.619 2.462 5.521 5.521 0 0 1 .778 2.061 5.808 5.808 0 0 1-2.511 5.655z" class="cls-4" transform="translate(0 24.943)"/>
            <path id="Path-21" d="M.506 12.552c-.375 0-.67-.3-.4-.674V.674C-.165.3.131 0 .506 0s.67.3.938.674v11.2c-.268.357-.563.678-.938.678z" class="cls-5" transform="translate(39.299 60.528)"/>
            <path id="Path-22" d="M.938 12.552c-.375 0-.67-.3-.938-.674V.674C.268.3.563 0 .938 0s.67.3.4.674v11.2c.27.357-.024.678-.4.678z" class="cls-5" transform="translate(49.829 60.528)"/>
            <path id="Path-23" d="M.657 26.125a.591.591 0 0 1-.294-.08.7.7 0 0 1-.3-.922L12.612.364a.691.691 0 0 1 .912-.3.7.7 0 0 1 .294.922L1.274 25.748a.715.715 0 0 1-.617.377z" class="cls-5" transform="translate(51.156 45.848)"/>
            <path id="Path-24" d="M13.2 26.125a.646.646 0 0 1-.59-.377L.068.99a.718.718 0 0 1 .3-.922.707.707 0 0 1 .911.3l12.54 24.755a.717.717 0 0 1-.294.922.914.914 0 0 1-.325.08z" class="cls-5" transform="translate(25.342 45.848)"/>
            <path id="Path-25" fill="#cad1e0" d="M54.091 22.264a27.5 27.5 0 0 0-4.584-10.739A27.253 27.253 0 0 0 0 27.541 28.142 28.142 0 0 0 3.7 41.4a6.37 6.37 0 0 0 .429.7A44.943 44.943 0 0 0 13.7 53.11c1.608 1.355 3.3 2.6 4.8 4.058a8.249 8.249 0 0 1 2.627 3.85 5.318 5.318 0 0 1 .134 1.051h12.111a6.929 6.929 0 0 1 .375-1.756 6.555 6.555 0 0 1 1.019-1.652 25.533 25.533 0 0 1 3.458-3.3c3.3-2.727 6.728-5.438 9.275-8.926a46.9 46.9 0 0 0 4.288-6.6 27.555 27.555 0 0 0 2.332-6.954c.08-.433.16-.89.214-1.323.054-.3.08-.569.107-.866a30.29 30.29 0 0 0 .16-3.112 26.609 26.609 0 0 0-.509-5.316z" transform="translate(17.959)"/>
            <path id="Path-26" fill="#e7ebf2" d="M28.064 27.573C28.064 12.335 21.792 0 14.045 0S0 12.335 0 27.573a49.934 49.934 0 0 0 1.9 13.851 50.559 50.559 0 0 0 5.122 11.718c.831 1.347 1.689 2.6 2.466 4.058a10.759 10.759 0 0 1 1.34 3.842c0 .08.107 1.051.08 1.051h6.219a15.7 15.7 0 0 1 .188-1.756 9.283 9.283 0 0 1 .536-1.652 21.26 21.26 0 0 1 1.8-3.3 49.763 49.763 0 0 0 4.771-8.926 61.647 61.647 0 0 0 2.2-6.609 46.785 46.785 0 0 0 1.201-6.95c.161-1.782.241-3.57.241-5.327z" transform="translate(31.227)"/>
            <path id="Path-27" fill="#8c96a7" d="M15.412 16.04a30.284 30.284 0 0 1-.16 3.112 7.54 7.54 0 0 1-4.4-2.462 5.922 5.922 0 0 1-4.879 2.542A6.026 6.026 0 0 1 5.6 7.194a5.77 5.77 0 0 1-.214-1.516A5.7 5.7 0 0 1 10.159.024c.054 0 .107-.024.16-.024A27.067 27.067 0 0 1 14.9 10.739a26.935 26.935 0 0 1 .512 5.301z" opacity="0.2" transform="translate(57.147 11.501)"/>
            <path id="Path-28" d="M30.932 22.264a7.641 7.641 0 0 1-3.032 1.171 7.925 7.925 0 0 1-5.844-1.3 8.25 8.25 0 0 1-.67-.513A7.378 7.378 0 0 1 10.856 21a5.943 5.943 0 0 1-4.879 2.542A6.026 6.026 0 0 1 5.6 11.5a5.77 5.77 0 0 1-.214-1.516 5.692 5.692 0 0 1 4.771-5.654 4.708 4.708 0 0 1 .885-.08 5.653 5.653 0 0 1 2.6.618 4.407 4.407 0 0 1 .214-.537A7.454 7.454 0 0 1 20.613 0a6.6 6.6 0 0 1 2.225.353A7.464 7.464 0 0 1 27.823 5.6a6.521 6.521 0 0 1 .241 1.789 8.132 8.132 0 0 1 6.46 6.633 8.1 8.1 0 0 1-3.592 8.242z" class="cls-1" transform="translate(56.45 4.924)"/>
            <path id="Path-29" d="M6.379 5.645a.7.7 0 0 0-.322-.409c-.3-.16-.7 0-.912-.217a.706.706 0 0 1-.16-.353c-.161-.89.375-1.917-.161-2.647-.107-.16-.268-.273-.375-.433-.322-.465-.3-1-.778-1.323A2.322 2.322 0 0 0 2.009.071 2.94 2.94 0 0 0 .052 3.263a.874.874 0 0 0 .3.537c.509.353 1.367-.4 1.769.056a.892.892 0 0 1 .08.786A16.157 16.157 0 0 0 1.9 6.648a1.58 1.58 0 0 0 .08.866 1.508 1.508 0 0 0 .831.618A3.021 3.021 0 0 0 5.467 8a1.993 1.993 0 0 0 .912-2.355z" class="cls-2" transform="translate(63.983 11.943)"/>
            <path id="Path-30" d="M2.221.007c-.08 0-.188.024-.268.024A2.241 2.241 0 0 0 .238 3.255a1.648 1.648 0 0 0 .831.914c.4.136.938-.16.911-.569a2.052 2.052 0 0 0-.08-.345 1.073 1.073 0 0 1 .3-.922 2.078 2.078 0 0 1 .857-.489 1.644 1.644 0 0 0 .537-.273A.745.745 0 0 0 3.7.793 1.469 1.469 0 0 0 2.221.007z" class="cls-2" transform="translate(60.394 19.017)"/>
            <path id="Path-31" d="M6.162.153A.919.919 0 0 0 5.68.04C3.509-.12.882.1.158 2.615a4.775 4.775 0 0 0-.107 1.949A2.6 2.6 0 0 0 .4 5.646a1.233 1.233 0 0 0 .911.593 1.259 1.259 0 0 0 .965-.489 5.741 5.741 0 0 0 .59-.97A3.756 3.756 0 0 1 5.3 2.591a3.241 3.241 0 0 0 .916-.191c.59-.329.563-1.219.241-1.837a.841.841 0 0 0-.295-.41z" class="cls-2" transform="translate(71.812 8.1)"/>
            <path id="Path-32" d="M6.616.089C6 .329 5.758 1.115 5.463 1.765A5.237 5.237 0 0 1 2.22 4.66c-.643.193-3.19.489-1.82 1.516a4.968 4.968 0 0 0 2.3 1.187 3.839 3.839 0 0 0 2.707-.834 7.508 7.508 0 0 0 2.71-3.762A2.9 2.9 0 0 0 8.2.923 1.3 1.3 0 0 0 6.75.032c-.05.024-.107.024-.134.057z" class="cls-2" transform="translate(69.321 18.366)"/>
            <path id="Path-33" d="M4.316.9a1.258 1.258 0 0 0-.562-.57A2.319 2.319 0 0 0 2.065.057C.269.515-.508 3.033.349 4.6c.107.16.241.353.429.377a.5.5 0 0 0 .348-.112c.7-.537.3-1.837.992-2.326.536-.377 1.26.032 1.9-.024a.361.361 0 0 0 .241-.08.4.4 0 0 0 .107-.273A2.035 2.035 0 0 0 4.316.9z" class="cls-2" transform="translate(81.485 15.149)"/>
            <path id="Path-34" d="M2.632 1C2.016.562-.8-1.114.22 1.188a1.928 1.928 0 0 0 1.153.866c.3.136.617.265.911.377a1 1 0 0 0 .778.1A.633.633 0 0 0 3.3 1.7a1.9 1.9 0 0 0-.668-.7z" class="cls-2" transform="translate(79.255 24.573)"/>
            <path id="Path-35" d="M0 .08A4.714 4.714 0 0 1 .885 0a5.651 5.651 0 0 1 2.6.618A4.54 4.54 0 0 1 3.7.08a15.249 15.249 0 0 0 .24 5.277C2.064 4.195 1.876 1.211 0 .08z" class="cls-3" transform="translate(66.609 9.175)"/>
            <path id="Path-36" d="M30.905 21.887a7.641 7.641 0 0 1-3.028 1.171 19.165 19.165 0 0 1-1.823-2.679c-.723-1-2.064-1.789-3.109-1.163a2.29 2.29 0 0 0-.938 2.053 3.179 3.179 0 0 0 .054.489 8.236 8.236 0 0 1-.67-.513 7.379 7.379 0 0 1-10.535-.626 5.943 5.943 0 0 1-4.878 2.542 6.039 6.039 0 0 1-3.513-10.906 4.464 4.464 0 0 1-.241 2.2 5.261 5.261 0 0 0 3.566 5.924 2.1 2.1 0 0 0 1.5-.056.962.962 0 0 0 .429-1.3c-.107-.16-.268-.273-.3-.457-.08-.385.456-.569.831-.545 1.609.192 2.788 1.572 4.182 2.382a6.808 6.808 0 0 0 6.916-.192 7.494 7.494 0 0 0 3.35-6.135c.027-1.331-.322-2.679.054-3.978.456-1.548 1.823-2.679 2.2-4.227a3.405 3.405 0 0 0-.777-3c-.509-.569-1.206-1-1.5-1.676A1.269 1.269 0 0 1 22.838 0a7.475 7.475 0 0 1 4.985 5.253 4.894 4.894 0 0 0-1.314 1.837c-.188.489-.241 1.027-.456 1.516a11 11 0 0 1-.67 1.219 7.03 7.03 0 0 0 1.34 8.437 3.967 3.967 0 0 0 2.787 1.163 3.831 3.831 0 0 0 3.029-2.109 13.261 13.261 0 0 0 1.206-3.649.472.472 0 0 1 .107-.241c.188-.217.509-.032.7.217a8.228 8.228 0 0 1-3.647 8.244z" class="cls-3" transform="translate(56.477 5.301)"/>
            <path id="Path-37" d="M30.932 22.264a7.641 7.641 0 0 1-3.032 1.171 7.925 7.925 0 0 1-5.844-1.3 8.25 8.25 0 0 1-.67-.513A7.378 7.378 0 0 1 10.856 21a5.943 5.943 0 0 1-4.879 2.542A6.026 6.026 0 0 1 5.6 11.5a5.77 5.77 0 0 1-.214-1.516 5.692 5.692 0 0 1 4.771-5.654 4.708 4.708 0 0 1 .885-.08 5.653 5.653 0 0 1 2.6.618 4.407 4.407 0 0 1 .214-.537A7.454 7.454 0 0 1 20.613 0a6.6 6.6 0 0 1 2.225.353A7.464 7.464 0 0 1 27.823 5.6a6.521 6.521 0 0 1 .241 1.789 8.132 8.132 0 0 1 6.46 6.633 8.1 8.1 0 0 1-3.592 8.242z" class="cls-4" transform="translate(56.45 4.924)"/>
            <g id="Сгруппировать_16889" transform="translate(31.886 69.307)">
                <path id="Path-38" fill="url(#linear-gradient)" d="M26.608 16.191a12.021 12.021 0 0 1-.966 2.91c-.137.14-.137.421-.274.549a8.932 8.932 0 0 1-1.241 1.94c-.138.281-.414.421-.551.7a11.9 11.9 0 0 1-4.135 3.178c-.276.14-.55.281-.826.408-.551.14-.965.421-1.516.562a13.946 13.946 0 0 1-6.339.268A13.48 13.48 0 0 1 16.133.289a13.438 13.438 0 0 1 10.474 15.9z" transform="translate(0 0)"/>
                <path id="Shape" fill="#f9b400" d="M9.046 22.489A11.462 11.462 0 0 1 .226 9.063a11.039 11.039 0 0 1 4.823-7.2A11.538 11.538 0 0 1 13.593.206a10.861 10.861 0 0 1 5.65 3.051 11.188 11.188 0 0 1 3.032 10.376 6.794 6.794 0 0 1-.827 2.348c0 .141-.138.281-.276.422-.276.549-.689 1.111-.965 1.659-.138.141-.276.409-.414.549a13.084 13.084 0 0 1-3.445 2.769 3.043 3.043 0 0 0-.689.422c-.551.127-.965.409-1.241.409a7.739 7.739 0 0 1-3.03.561 13.368 13.368 0 0 1-2.342-.283z" transform="translate(2.127 2.15)"/>
                <g id="Сгруппировать_16833" transform="translate(6.34 7.915)">
                    <path id="Path-39" fill="url(#linear-gradient-2)" d="M16.676 12.679a7.812 7.812 0 0 1-1.1 1.8c-.138.281-.414.421-.551.689a11.788 11.788 0 0 1-4.134 3.191c-.276.14-.551.268-.827.408-.551.14-.965.421-1.516.562L.138 10.88v-.8l.4-1.448.408-.742L-.5 2.4a28.3 28.3 0 0 0 3.258.321l1.381 1.6 1.705.3 5.045-3.45 6.339 9.981c.137.289-.552 1.387-.552 1.527z" transform="translate(2.332 -0.818)"/>
                    <g id="Сгруппировать_7579" transform="translate(0 0)">
                        <path id="Контур_22776" d="M327.55 196.769c-2.111-1.177-2.933-.257-3.119 1.378-.485-3.146.505-4.335 2.267-3.538a8.372 8.372 0 0 1 2.087 1.367 1.951 1.951 0 0 0 1.318.484" class="cls-12" transform="translate(-323.095 -194.108)"/>
                        <path id="Контур_22777" d="M420.522 196.46a2.087 2.087 0 0 0 1.327-.5 8.951 8.951 0 0 1 2.117-1.35c1.764-.8 2.756.392 2.27 3.538-.22.156-.435.314-.662.486.021-.5-.047-1.07-.055-1.5-.025-1.408-2-.9-3.026.288-.594.688.214 1.63 1.138 2.256a3.323 3.323 0 0 0 .5.1c-.373.305-.8.66-1.313 1.083-.642-.6-1.463-1.375-2.283-2.1" class="cls-12" transform="translate(-413.523 -194.109)"/>
                        <path id="Контур_22778" d="M330.119 196.463a2.082 2.082 0 0 1-1.309-.5 8.944 8.944 0 0 0-2.114-1.35c-1.762-.8-2.752.392-2.267 3.538.219.156.434.313.662.486-.02-.5.047-1.07.055-1.5.025-1.408 2-.9 3.022.288.593.689-.214 1.63-1.136 2.256a3.361 3.361 0 0 1-.5.1c.372.305.8.66 1.311 1.084.641-.6 1.461-1.376 2.281-2.1s-.005-2.302-.005-2.302z" class="cls-12" transform="translate(-323.094 -194.112)"/>
                        <path id="Контур_22779" d="M433.158 291.518a4.868 4.868 0 0 0 1.9 2.191c2.013 1 3.182-.553 2.672-2.216a4.789 4.789 0 0 0-2.421-2.766c-.336-.136-2.521 1.902-2.151 2.791zm.914-1.474c.095-.533.352-.489.494-.428a3.1 3.1 0 0 1 1.515 1.466c.35.874-.251 1.423-1.034.914a1.962 1.962 0 0 1-.975-1.952z" class="cls-12" transform="translate(-425.36 -282.786)"/>
                        <path id="Контур_22780" d="M332.656 288.727a4.789 4.789 0 0 0-2.421 2.766c-.511 1.663.659 3.211 2.672 2.216a4.869 4.869 0 0 0 1.9-2.191c.369-.889-1.816-2.927-2.151-2.791zm.261 3.268c-.784.51-1.385-.04-1.035-.914a3.1 3.1 0 0 1 1.515-1.466c.142-.061.4-.1.494.428a1.962 1.962 0 0 1-.974 1.957z" class="cls-12" transform="translate(-328.554 -282.786)"/>
                        <path id="Контур_22781" fill="url(#linear-gradient-3)" d="M314.594 190.544c3.848-1.332 1.575 5.491-3.422 5.491s-7.27-6.823-3.422-5.491c-4.193-2.178-5.28 3.28-.252 6.266 1.494.887 3 2.521 1 4.157 1.264-.629 1.577-1.766 2.671-1.766s1.408 1.137 2.671 1.766c-2-1.637-.49-3.27 1-4.157 5.034-2.985 3.947-8.444-.246-6.266z" transform="translate(-304.147 -190.044)"/>
                    </g>
                </g>
            </g>
            <path id="Path-40" fill="url(#linear-gradient-4)" d="M54.038.032c-.054.433-.134.89-.214 1.323a27.556 27.556 0 0 1-2.332 6.954 45.484 45.484 0 0 1-4.288 6.6c-2.546 3.521-5.977 6.2-9.275 8.926a22.44 22.44 0 0 0-3.458 3.3 7.01 7.01 0 0 0-1.019 1.652 6.929 6.929 0 0 0-.375 1.756H20.961a8.639 8.639 0 0 0-.134-1.051 8.448 8.448 0 0 0-2.627-3.85c-1.528-1.428-3.19-2.7-4.8-4.058a43.938 43.938 0 0 1-9.57-11.012c-.134-.241-.268-.457-.429-.7A27.575 27.575 0 0 1 0 0h54.038z" opacity="0.2" transform="translate(18.254 31.519)"/>
        </g>
    </g>
</svg>
