<svg xmlns="http://www.w3.org/2000/svg" width="94.277" height="94.433" viewBox="0 0 94.277 94.433">
    <defs>
        <linearGradient id="linear-gradient" x1=".001" x2=".999" y1=".501" y2=".501" gradientUnits="objectBoundingBox">
            <stop offset=".003" stop-color="#ffd44f"/>
            <stop offset="1" stop-color="#ffa607"/>
        </linearGradient>
        <linearGradient id="linear-gradient-2" x1=".238" x2=".601" y1=".349" y2=".664" gradientUnits="objectBoundingBox">
            <stop offset="0" stop-color="#faa404"/>
            <stop offset="1" stop-color="#ff7904" stop-opacity="0"/>
        </linearGradient>
        <linearGradient id="linear-gradient-3" x1=".778" x2=".358" y1=".852" y2=".141" gradientUnits="objectBoundingBox">
            <stop offset="0" stop-color="#ffe491"/>
            <stop offset="1" stop-color="#fff"/>
        </linearGradient>
        <style>
            .cls-4{fill:#ffc436}
        </style>
    </defs>
    <g id="Сгруппировать_16835" transform="translate(-29.306 -85.322)">
        <path id="Path" fill="url(#linear-gradient)" d="M93.222 56.727c-.483 3.4-1.936 6.8-3.385 10.195-.478.492-.478 1.476-.961 1.923-1.449 2.459-2.415 4.874-4.346 6.8-.483.984-1.449 1.476-1.932 2.459-3.863 4.829-8.693 8.228-14.488 11.134-.966.492-1.927.984-2.893 1.431-1.932.492-3.38 1.476-5.312 1.967a48.861 48.861 0 0 1-22.21.939C12.105 88.251-4.314 63.032 1 37.857 6.31 12.146 31.418-4.353 56.525 1.012a46.781 46.781 0 0 1 23.659 12.61C91.769 25.248 96.6 41.256 93.222 56.727z" transform="translate(29.306 85.322)"/>
        <path id="Shape" fill="#f9b400" d="M31.694 78.793C10.45 74.41-3.555 53.081.792 31.752a38.677 38.677 0 0 1 16.9-25.22A40.425 40.425 0 0 1 47.623.721a38.052 38.052 0 0 1 19.8 10.689 39.2 39.2 0 0 1 10.62 36.351 23.8 23.8 0 0 1-2.9 8.226c0 .495-.483.986-.966 1.477-.966 1.924-2.415 3.892-3.38 5.811-.483.495-.966 1.433-1.449 1.924a45.841 45.841 0 0 1-12.069 9.7 10.662 10.662 0 0 0-2.415 1.477c-1.932.447-3.38 1.433-4.346 1.433A27.115 27.115 0 0 1 39.9 79.775a46.836 46.836 0 0 1-8.206-.982z" transform="translate(36.759 92.854)"/>
        <g id="Сгруппировать_16833">
            <path id="Path-2" fill="url(#linear-gradient-2)" d="M59.681 41.469a27.37 27.37 0 0 1-3.863 6.3c-.483.984-1.449 1.476-1.932 2.415-3.863 4.874-8.693 8.272-14.483 11.179-.966.492-1.932.939-2.9 1.431-1.932.492-3.38 1.476-5.312 1.967L1.739 35.164v-2.789l1.4-5.074 1.43-2.611L-.5 5.468s11.9 1.615 11.415 1.124l4.837 5.618 5.974 1.057L39.4 1.18l22.21 34.968c.49.984-1.929 4.829-1.929 5.321z" transform="translate(58.435 113.143)"/>
            <g id="Сгруппировать_7579" transform="translate(51.518 113.055)">
                <path id="Контур_22776" d="M335.668 202.777c-7.4-4.125-10.276-.9-10.929 4.828-1.7-11.023 1.77-15.19 7.942-12.395a29.329 29.329 0 0 1 7.313 4.79 6.838 6.838 0 0 0 4.618 1.695" class="cls-4" transform="translate(-320.06 -193.457)"/>
                <path id="Контур_22777" d="M420.522 201.7a7.312 7.312 0 0 0 4.65-1.754 31.367 31.367 0 0 1 7.417-4.731c6.181-2.795 9.656 1.372 7.954 12.395-.77.546-1.524 1.1-2.321 1.7.073-1.736-.166-3.749-.192-5.265-.087-4.933-7.02-3.144-10.6 1.009-2.08 2.412.751 5.712 3.987 7.9a11.637 11.637 0 0 0 1.767.358c-1.307 1.07-2.81 2.311-4.6 3.8-2.248-2.111-5.125-4.817-8-7.357" class="cls-4" transform="translate(-396 -193.457)"/>
                <path id="Контур_22778" d="M344.671 201.7a7.292 7.292 0 0 1-4.585-1.753 31.345 31.345 0 0 0-7.407-4.731c-6.172-2.794-9.642 1.372-7.942 12.394.769.546 1.521 1.1 2.318 1.7-.072-1.736.166-3.749.192-5.266.086-4.933 7.01-3.144 10.586 1.009 2.078 2.413-.75 5.712-3.981 7.9a11.78 11.78 0 0 1-1.766.358c1.3 1.07 2.8 2.311 4.592 3.8 2.245-2.112 5.12-4.82 7.992-7.361s.001-8.05.001-8.05z" class="cls-4" transform="translate(-320.058 -193.461)"/>
                <path id="Контур_22779" d="M433.264 298.523a17.056 17.056 0 0 0 6.649 7.677c7.054 3.486 11.15-1.937 9.361-7.764-.8-2.615-3.808-7.789-8.481-9.693-1.173-.477-8.827 6.664-7.529 9.78zm3.2-5.164c.332-1.867 1.234-1.713 1.731-1.5a10.862 10.862 0 0 1 5.308 5.135c1.227 3.062-.878 4.986-3.624 3.2a6.873 6.873 0 0 1-3.413-6.835z" class="cls-4" transform="translate(-405.941 -267.928)"/>
                <path id="Контур_22780" d="M339.016 288.743c-4.673 1.9-7.678 7.078-8.481 9.693-1.789 5.827 2.308 11.25 9.361 7.764a17.058 17.058 0 0 0 6.649-7.677c1.298-3.116-6.356-10.257-7.529-9.78zm.913 11.451c-2.746 1.785-4.851-.139-3.624-3.2a10.862 10.862 0 0 1 5.308-5.135c.5-.213 1.4-.367 1.731 1.5a6.873 6.873 0 0 1-3.415 6.836z" class="cls-4" transform="translate(-324.644 -267.928)"/>
                <path id="Контур_22781" fill="url(#linear-gradient-3)" d="M340.748 191.8c13.48-4.668 5.518 19.238-11.99 19.238s-25.471-23.906-11.99-19.238c-14.692-7.632-18.5 11.493-.884 21.953 5.234 3.108 10.506 8.831 3.516 14.566 4.428-2.2 5.524-6.188 9.359-6.188s4.931 3.984 9.359 6.188c-6.991-5.734-1.718-11.458 3.515-14.566 17.615-10.463 13.807-29.587-.885-21.953z" transform="translate(-304.147 -190.044)"/>
            </g>
        </g>
    </g>
</svg>
