<svg xmlns="http://www.w3.org/2000/svg" width="79.044" height="63.223" viewBox="0 0 79.044 63.223"><defs><style>.a{fill:#e1dfeb;}.b{fill:#fff;}</style></defs><path class="a" d="M342.551,207.872c-11.877-6.625-16.5-1.449-17.551,7.754-2.73-17.7,2.843-24.392,12.753-19.9a47.087,47.087,0,0,1,11.744,7.691,10.982,10.982,0,0,0,7.417,2.722" transform="translate(-317.486 -192.905)"/><path class="a" d="M420.522,206.134a11.741,11.741,0,0,0,7.467-2.816,50.374,50.374,0,0,1,11.91-7.6c9.925-4.488,15.506,2.2,12.772,19.9-1.237.877-2.448,1.764-3.727,2.734.117-2.788-.266-6.021-.309-8.455-.139-7.922-11.274-5.05-17.027,1.621-3.341,3.873,1.207,9.172,6.4,12.693a18.692,18.692,0,0,0,2.838.575c-2.1,1.718-4.512,3.712-7.385,6.1-3.61-3.39-8.229-7.736-12.846-11.814" transform="translate(-381.143 -192.905)"/><path class="a" d="M357.009,206.136a11.709,11.709,0,0,1-7.363-2.815,50.329,50.329,0,0,0-11.894-7.6c-9.911-4.487-15.484,2.2-12.753,19.9,1.235.876,2.443,1.763,3.722,2.734-.115-2.788.267-6.02.308-8.456.139-7.921,11.258-5.049,17,1.621,3.336,3.874-1.2,9.173-6.392,12.693a18.876,18.876,0,0,1-2.836.575c2.095,1.719,4.5,3.712,7.373,6.1,3.606-3.391,8.222-7.74,12.834-11.82S357.009,206.136,357.009,206.136Z" transform="translate(-317.485 -192.908)"/><path class="a" d="M433.353,304.461A27.39,27.39,0,0,0,444.03,316.79c11.327,5.6,17.906-3.11,15.033-12.468-1.289-4.2-6.115-12.507-13.62-15.565C443.56,287.99,431.269,299.458,433.353,304.461Zm5.142-8.292c.533-3,1.981-2.751,2.78-2.409,3.243,1.39,7.144,4.8,8.524,8.246,1.971,4.918-1.41,8.007-5.82,5.141C439.955,304.531,437.754,300.339,438.495,296.169Z" transform="translate(-389.476 -255.331)"/><path class="a" d="M344.408,288.757c-7.5,3.058-12.33,11.366-13.619,15.565-2.872,9.358,3.706,18.067,15.033,12.468A27.39,27.39,0,0,0,356.5,304.461C358.583,299.458,346.292,287.99,344.408,288.757Zm1.466,18.389c-4.41,2.867-7.791-.223-5.82-5.141,1.379-3.442,5.281-6.856,8.524-8.246.8-.342,2.246-.589,2.779,2.409C352.1,300.339,349.9,304.531,345.874,307.147Z" transform="translate(-321.329 -255.331)"/><path class="b" d="M362.923,192.86c21.647-7.5,8.862,30.894-19.255,30.894s-40.9-38.39-19.254-30.894c-23.593-12.256-29.708,18.455-1.42,35.253,8.4,4.99,16.872,14.182,5.646,23.391,7.11-3.539,8.871-9.937,15.029-9.937s7.919,6.4,15.029,9.937c-11.226-9.209-2.759-18.4,5.646-23.391C392.631,211.315,386.516,180.6,362.923,192.86Z" transform="translate(-304.147 -190.044)"/><path class="a" d="M412.1,265.7l-4.527,4.652a6.655,6.655,0,0,1,4.518-1.949,7.072,7.072,0,0,1,4.536,1.949Z" transform="translate(-372.576 -240.097)"/></svg>