<svg xmlns="http://www.w3.org/2000/svg" width="56" height="56" viewBox="0 0 56 56">
    <defs>
        <clipPath id="clip-path">
            <rect id="e313d1b69d4ce5c54f69492747d71041" width="56" height="56" fill="#302e3d" stroke="#302e3d" stroke-width="3px" rx="28" transform="translate(377 373)"/>
        </clipPath>
        <style>
            .cls-3{fill:#e1dfeb}.cls-4{fill:#fff}
        </style>
    </defs>
    <g id="Группа_масок_1" clip-path="url(#clip-path)" transform="translate(-377 -373)">
        <g id="Сгруппировать_7588" transform="rotate(-40 418.569 406.612)">
            <g id="Сгруппировать_7586" transform="translate(368.053 377.476)">
                <g id="Сгруппировать_7584">
                    <g id="Сгруппировать_7579">
                        <path id="Контур_22776" d="M330.082 198.643c-3.759-2.1-5.223-.458-5.555 2.454-.864-5.6.9-7.721 4.037-6.3a14.9 14.9 0 0 1 3.717 2.434 3.476 3.476 0 0 0 2.348.862" class="cls-3" transform="translate(-322.149 -193.905)"/>
                        <path id="Контур_22777" d="M420.522 198.093a3.716 3.716 0 0 0 2.364-.891 15.944 15.944 0 0 1 3.77-2.4c3.142-1.421 4.908.7 4.043 6.3-.392.278-.775.558-1.18.866.037-.883-.084-1.906-.1-2.676-.044-2.507-3.568-1.6-5.389.513-1.057 1.226.382 2.9 2.027 4.018a5.921 5.921 0 0 0 .9.182c-.664.544-1.428 1.175-2.338 1.929-1.143-1.073-2.6-2.449-4.066-3.739" class="cls-3" transform="translate(-408.057 -193.905)"/>
                        <path id="Контур_22778" d="M334.657 202.191c-1.46 1.291-2.921 2.668-4.062 3.741-.908-.755-1.671-1.386-2.334-1.93a5.973 5.973 0 0 0 .9-.182c1.642-1.114 3.079-2.791 2.023-4.018-1.818-2.111-5.337-3.02-5.381-.513-.013.771-.134 1.794-.1 2.677-.4-.307-.787-.588-1.178-.865-.864-5.6.9-7.72 4.037-6.3a15.93 15.93 0 0 1 3.765 2.4 3.706 3.706 0 0 0 2.331.891" class="cls-3" transform="translate(-322.147 -193.909)"/>
                        <path id="Контур_22779" d="M433.191 293.7a8.67 8.67 0 0 0 3.38 3.9c3.585 1.772 5.668-.984 4.758-3.946a8.529 8.529 0 0 0-4.311-4.927c-.596-.238-4.487 3.392-3.827 4.973zm1.627-2.625c.169-.949.627-.871.88-.763a5.521 5.521 0 0 1 2.7 2.61c.624 1.557-.446 2.535-1.842 1.627a3.494 3.494 0 0 1-1.738-3.471z" class="cls-3" transform="translate(-419.303 -278.152)"/>
                        <path id="Контур_22780" d="M334.64 288.732a8.529 8.529 0 0 0-4.311 4.927c-.909 2.962 1.173 5.719 4.758 3.946a8.67 8.67 0 0 0 3.38-3.9c.66-1.586-3.231-5.216-3.827-4.973zm.464 5.821c-1.4.907-2.466-.071-1.842-1.627a5.521 5.521 0 0 1 2.7-2.61c.253-.108.711-.186.88.763a3.494 3.494 0 0 1-1.742 3.474z" class="cls-3" transform="translate(-327.335 -278.152)"/>
                        <path id="Контур_22781" d="M322.751 190.935c6.852-2.373 2.8 9.779-6.095 9.779s-12.947-12.151-6.095-9.779c-7.468-3.879-9.4 5.842-.45 11.158 2.66 1.58 5.34 4.489 1.787 7.4 2.251-1.12 2.808-3.145 4.757-3.145s2.507 2.025 4.757 3.145c-3.553-2.915-.873-5.824 1.787-7.4 8.955-5.316 7.02-15.037-.448-11.158z" class="cls-4" transform="translate(-304.147 -190.044)"/>
                    </g>
                    <path id="Контур_22782" d="M409.006 265.7l-1.433 1.472a2.106 2.106 0 0 1 1.43-.617 2.238 2.238 0 0 1 1.436.617z" class="cls-3" transform="translate(-396.495 -257.593)"/>
                </g>
                <g id="Сгруппировать_7585" transform="translate(22.638 8.804)">
                    <g id="Сгруппировать_7579-2">
                        <path id="Контур_22776-2" d="M330.083 196.823c-3.759 2.1-5.223.459-5.555-2.454-.864 5.6.9 7.721 4.037 6.3a14.9 14.9 0 0 0 3.717-2.434 3.476 3.476 0 0 1 2.348-.862" class="cls-3" transform="translate(-322.149 -181.549)"/>
                        <path id="Контур_22777-2" d="M420.522 202.2a3.717 3.717 0 0 1 2.364.891 15.945 15.945 0 0 0 3.77 2.4c3.142 1.421 4.908-.7 4.043-6.3-.392-.278-.775-.558-1.18-.866.037.883-.084 1.906-.1 2.676-.044 2.507-3.568 1.6-5.389-.513-1.057-1.226.382-2.9 2.027-4.018a5.921 5.921 0 0 1 .9-.182c-.664-.544-1.428-1.175-2.338-1.93-1.143 1.073-2.6 2.449-4.066 3.739" class="cls-3" transform="translate(-408.057 -186.38)"/>
                        <path id="Контур_22778-2" d="M334.658 198.114c-1.46-1.291-2.921-2.668-4.062-3.741-.908.755-1.671 1.386-2.334 1.93a5.974 5.974 0 0 1 .9.182c1.642 1.114 3.079 2.791 2.023 4.018-1.818 2.111-5.337 3.02-5.381.513-.013-.771-.134-1.794-.1-2.677-.4.307-.787.588-1.178.865-.864 5.6.9 7.72 4.037 6.3a15.931 15.931 0 0 0 3.765-2.4 3.706 3.706 0 0 1 2.331-.891" class="cls-3" transform="translate(-322.147 -186.384)"/>
                        <path id="Контур_22779-2" d="M433.191 293.181a8.67 8.67 0 0 1 3.38-3.9c3.585-1.772 5.668.984 4.758 3.946a8.529 8.529 0 0 1-4.311 4.927c-.596.241-4.487-3.389-3.827-4.973zm1.628 2.625c.169.949.627.871.88.763a5.521 5.521 0 0 0 2.7-2.61c.624-1.557-.446-2.534-1.842-1.627a3.494 3.494 0 0 0-1.738 3.474z" class="cls-3" transform="translate(-419.302 -288.721)"/>
                        <path id="Контур_22780-2" d="M334.64 298.152a8.529 8.529 0 0 1-4.311-4.927c-.909-2.962 1.173-5.719 4.759-3.946a8.67 8.67 0 0 1 3.38 3.9c.659 1.586-3.232 5.216-3.828 4.973zm.464-5.821c-1.4-.907-2.466.071-1.842 1.627a5.521 5.521 0 0 0 2.7 2.61c.253.108.711.186.88-.763a3.493 3.493 0 0 0-1.742-3.474z" class="cls-3" transform="translate(-327.335 -288.721)"/>
                        <path id="Контур_22781-2" d="M322.751 208.606c6.852 2.373 2.8-9.779-6.095-9.779s-12.947 12.151-6.095 9.779c-7.468 3.879-9.4-5.842-.45-11.158 2.66-1.58 5.34-4.489 1.787-7.4 2.251 1.12 2.808 3.145 4.757 3.145s2.507-2.025 4.757-3.145c-3.553 2.915-.873 5.824 1.787 7.4 8.956 5.316 7.02 15.037-.448 11.158z" class="cls-4" transform="translate(-304.147 -189.486)"/>
                    </g>
                    <path id="Контур_22782-2" d="M409.006 267.168l-1.433-1.472a2.107 2.107 0 0 0 1.43.617 2.239 2.239 0 0 0 1.436-.617z" class="cls-3" transform="translate(-396.495 -255.26)"/>
                </g>
            </g>
            <g id="Сгруппировать_7587" transform="translate(413.33 377.476)">
                <g id="Сгруппировать_7584-2">
                    <g id="Сгруппировать_7579-3">
                        <path id="Контур_22776-3" d="M330.082 198.643c-3.759-2.1-5.223-.458-5.555 2.454-.864-5.6.9-7.721 4.037-6.3a14.9 14.9 0 0 1 3.717 2.434 3.476 3.476 0 0 0 2.348.862" class="cls-3" transform="translate(-322.149 -193.905)"/>
                        <path id="Контур_22777-3" d="M420.522 198.093a3.716 3.716 0 0 0 2.364-.891 15.944 15.944 0 0 1 3.77-2.4c3.142-1.421 4.908.7 4.043 6.3-.392.278-.775.558-1.18.866.037-.883-.084-1.906-.1-2.676-.044-2.507-3.568-1.6-5.389.513-1.057 1.226.382 2.9 2.027 4.018a5.921 5.921 0 0 0 .9.182c-.664.544-1.428 1.175-2.338 1.929-1.143-1.073-2.6-2.449-4.066-3.739" class="cls-3" transform="translate(-408.057 -193.905)"/>
                        <path id="Контур_22778-3" d="M334.657 202.191c-1.46 1.291-2.921 2.668-4.062 3.741-.908-.755-1.671-1.386-2.334-1.93a5.973 5.973 0 0 0 .9-.182c1.642-1.114 3.079-2.791 2.023-4.018-1.818-2.111-5.337-3.02-5.381-.513-.013.771-.134 1.794-.1 2.677-.4-.307-.787-.588-1.178-.865-.864-5.6.9-7.72 4.037-6.3a15.93 15.93 0 0 1 3.765 2.4 3.706 3.706 0 0 0 2.331.891" class="cls-3" transform="translate(-322.147 -193.909)"/>
                        <path id="Контур_22779-3" d="M433.191 293.7a8.67 8.67 0 0 0 3.38 3.9c3.585 1.772 5.668-.984 4.758-3.946a8.529 8.529 0 0 0-4.311-4.927c-.596-.238-4.487 3.392-3.827 4.973zm1.627-2.625c.169-.949.627-.871.88-.763a5.521 5.521 0 0 1 2.7 2.61c.624 1.557-.446 2.535-1.842 1.627a3.494 3.494 0 0 1-1.738-3.471z" class="cls-3" transform="translate(-419.303 -278.152)"/>
                        <path id="Контур_22780-3" d="M334.64 288.732a8.529 8.529 0 0 0-4.311 4.927c-.909 2.962 1.173 5.719 4.758 3.946a8.67 8.67 0 0 0 3.38-3.9c.66-1.586-3.231-5.216-3.827-4.973zm.464 5.821c-1.4.907-2.466-.071-1.842-1.627a5.521 5.521 0 0 1 2.7-2.61c.253-.108.711-.186.88.763a3.494 3.494 0 0 1-1.742 3.474z" class="cls-3" transform="translate(-327.335 -278.152)"/>
                        <path id="Контур_22781-3" d="M322.751 190.935c6.852-2.373 2.8 9.779-6.095 9.779s-12.947-12.151-6.095-9.779c-7.468-3.879-9.4 5.842-.45 11.158 2.66 1.58 5.34 4.489 1.787 7.4 2.251-1.12 2.808-3.145 4.757-3.145s2.507 2.025 4.757 3.145c-3.553-2.915-.873-5.824 1.787-7.4 8.955-5.316 7.02-15.037-.448-11.158z" class="cls-4" transform="translate(-304.147 -190.044)"/>
                    </g>
                    <path id="Контур_22782-3" d="M409.006 265.7l-1.433 1.472a2.106 2.106 0 0 1 1.43-.617 2.238 2.238 0 0 1 1.436.617z" class="cls-3" transform="translate(-396.495 -257.593)"/>
                </g>
                <g id="Сгруппировать_7585-2" transform="translate(22.638 8.804)">
                    <g id="Сгруппировать_7579-4">
                        <path id="Контур_22776-4" d="M330.083 196.823c-3.759 2.1-5.223.459-5.555-2.454-.864 5.6.9 7.721 4.037 6.3a14.9 14.9 0 0 0 3.717-2.434 3.476 3.476 0 0 1 2.348-.862" class="cls-3" transform="translate(-322.149 -181.549)"/>
                        <path id="Контур_22777-4" d="M420.522 202.2a3.717 3.717 0 0 1 2.364.891 15.945 15.945 0 0 0 3.77 2.4c3.142 1.421 4.908-.7 4.043-6.3-.392-.278-.775-.558-1.18-.866.037.883-.084 1.906-.1 2.676-.044 2.507-3.568 1.6-5.389-.513-1.057-1.226.382-2.9 2.027-4.018a5.921 5.921 0 0 1 .9-.182c-.664-.544-1.428-1.175-2.338-1.93-1.143 1.073-2.6 2.449-4.066 3.739" class="cls-3" transform="translate(-408.057 -186.38)"/>
                        <path id="Контур_22778-4" d="M334.658 198.114c-1.46-1.291-2.921-2.668-4.062-3.741-.908.755-1.671 1.386-2.334 1.93a5.974 5.974 0 0 1 .9.182c1.642 1.114 3.079 2.791 2.023 4.018-1.818 2.111-5.337 3.02-5.381.513-.013-.771-.134-1.794-.1-2.677-.4.307-.787.588-1.178.865-.864 5.6.9 7.72 4.037 6.3a15.931 15.931 0 0 0 3.765-2.4 3.706 3.706 0 0 1 2.331-.891" class="cls-3" transform="translate(-322.147 -186.384)"/>
                        <path id="Контур_22779-4" d="M433.191 293.181a8.67 8.67 0 0 1 3.38-3.9c3.585-1.772 5.668.984 4.758 3.946a8.529 8.529 0 0 1-4.311 4.927c-.596.241-4.487-3.389-3.827-4.973zm1.628 2.625c.169.949.627.871.88.763a5.521 5.521 0 0 0 2.7-2.61c.624-1.557-.446-2.534-1.842-1.627a3.494 3.494 0 0 0-1.738 3.474z" class="cls-3" transform="translate(-419.302 -288.721)"/>
                        <path id="Контур_22780-4" d="M334.64 298.152a8.529 8.529 0 0 1-4.311-4.927c-.909-2.962 1.173-5.719 4.759-3.946a8.67 8.67 0 0 1 3.38 3.9c.659 1.586-3.232 5.216-3.828 4.973zm.464-5.821c-1.4-.907-2.466.071-1.842 1.627a5.521 5.521 0 0 0 2.7 2.61c.253.108.711.186.88-.763a3.493 3.493 0 0 0-1.742-3.474z" class="cls-3" transform="translate(-327.335 -288.721)"/>
                        <path id="Контур_22781-4" d="M322.751 208.606c6.852 2.373 2.8-9.779-6.095-9.779s-12.947 12.151-6.095 9.779c-7.468 3.879-9.4-5.842-.45-11.158 2.66-1.58 5.34-4.489 1.787-7.4 2.251 1.12 2.808 3.145 4.757 3.145s2.507-2.025 4.757-3.145c-3.553 2.915-.873 5.824 1.787 7.4 8.956 5.316 7.02 15.037-.448 11.158z" class="cls-4" transform="translate(-304.147 -189.486)"/>
                    </g>
                    <path id="Контур_22782-4" d="M409.006 267.168l-1.433-1.472a2.107 2.107 0 0 0 1.43.617 2.239 2.239 0 0 0 1.436-.617z" class="cls-3" transform="translate(-396.495 -255.26)"/>
                </g>
            </g>
        </g>
    </g>
</svg>
