<svg xmlns="http://www.w3.org/2000/svg" width="26.745" height="21.392" viewBox="0 0 26.745 21.392">
    <defs>
        <style>
            .cls-1{fill:#e1dfeb}
        </style>
    </defs>
    <g id="Сгруппировать_7579" transform="translate(-304.147 -190.044)">
        <g id="Сгруппировать_7579-2" transform="translate(304.147 190.044)">
            <path id="Контур_22776" d="M330.481 198.937c-4.018-2.242-5.583-.49-5.938 2.623-.924-5.989.962-8.253 4.315-6.735a15.932 15.932 0 0 1 3.974 2.6 3.716 3.716 0 0 0 2.51.921" class="cls-1" transform="translate(-322 -193.873)"/>
            <path id="Контур_22777" d="M420.522 198.349a3.973 3.973 0 0 0 2.526-.953 17.045 17.045 0 0 1 4.03-2.57c3.358-1.518 5.247.745 4.322 6.735-.419.3-.828.6-1.261.925.039-.943-.09-2.037-.1-2.861-.047-2.68-3.815-1.709-5.761.549-1.13 1.311.408 3.1 2.166 4.295a6.323 6.323 0 0 0 .96.194c-.71.581-1.526 1.256-2.5 2.063-1.221-1.147-2.784-2.617-4.346-4" class="cls-1" transform="translate(-407.198 -193.873)"/>
            <path id="Контур_22778" d="M335.371 202.73c-1.561 1.38-3.122 2.852-4.343 4-.971-.807-1.786-1.482-2.495-2.063a6.385 6.385 0 0 0 .959-.195c1.755-1.191 3.292-2.984 2.163-4.295-1.943-2.257-5.705-3.229-5.752-.548-.014.824-.143 1.918-.1 2.861-.433-.329-.842-.629-1.259-.925-.924-5.989.962-8.253 4.315-6.734a17.029 17.029 0 0 1 4.024 2.57 3.962 3.962 0 0 0 2.491.952" class="cls-1" transform="translate(-321.998 -193.877)"/>
            <path id="Контур_22779" d="M433.2 294.047a9.268 9.268 0 0 0 3.613 4.171c3.833 1.894 6.058-1.052 5.087-4.219a9.117 9.117 0 0 0-4.608-5.266c-.642-.26-4.801 3.621-4.092 5.314zm1.74-2.806c.18-1.014.67-.931.941-.815a5.9 5.9 0 0 1 2.884 2.79c.667 1.664-.477 2.709-1.969 1.739a3.735 3.735 0 0 1-1.86-3.714z" class="cls-1" transform="translate(-418.35 -277.423)"/>
            <path id="Контур_22780" d="M334.952 288.733a9.117 9.117 0 0 0-4.608 5.267c-.972 3.166 1.254 6.113 5.087 4.219a9.267 9.267 0 0 0 3.613-4.171c.704-1.694-3.455-5.575-4.092-5.315zm.5 6.222c-1.492.97-2.636-.075-1.969-1.739a5.9 5.9 0 0 1 2.884-2.79c.27-.116.76-.2.94.815a3.735 3.735 0 0 1-1.859 3.714z" class="cls-1" transform="translate(-327.143 -277.423)"/>
            <path id="Контур_22781" fill="#fff" d="M324.034 191c7.325-2.536 3 10.453-6.515 10.453S303.68 188.46 311 191c-7.983-4.147-10.052 6.244-.481 11.928 2.844 1.689 5.709 4.8 1.91 7.914 2.406-1.2 3-3.362 5.085-3.362s2.679 2.165 5.085 3.362c-3.8-3.116-.934-6.226 1.91-7.914 9.577-5.687 7.508-16.078-.475-11.928z" transform="translate(-304.147 -190.044)"/>
        </g>
        <path id="Контур_22782" d="M409.1 265.7l-1.532 1.574a2.252 2.252 0 0 1 1.529-.659 2.393 2.393 0 0 1 1.535.659z" class="cls-1" transform="translate(-91.585 -66.991)"/>
    </g>
</svg>
