<svg xmlns="http://www.w3.org/2000/svg" width="157.171" height="108.998" viewBox="0 0 157.171 108.998">
    <defs>
        <linearGradient id="linear-gradient" x2=".999" y1="2.324" y2="2.324" gradientUnits="objectBoundingBox">
            <stop offset="0" stop-color="#ffc107"/>
            <stop offset=".85" stop-color="#ff9800"/>
        </linearGradient>
        <linearGradient id="linear-gradient-2" x2="1.001" y1="2.788" y2="2.788" gradientUnits="objectBoundingBox">
            <stop offset=".15" stop-color="#ff9800"/>
            <stop offset="1" stop-color="#ffc107"/>
        </linearGradient>
        <linearGradient id="linear-gradient-3" x1="-.003" x2="1" y1="6.625" y2="6.625" gradientUnits="objectBoundingBox">
            <stop offset="0" stop-color="#3c5185"/>
            <stop offset=".128" stop-color="#41588e"/>
            <stop offset=".695" stop-color="#5573b1"/>
            <stop offset="1" stop-color="#5d7dbe"/>
        </linearGradient>
        <style>
            .cls-1{fill:#8d89a3}.cls-2{fill:#302e3d}.cls-3{fill:#ffdda1}.cls-4{fill:#e1dfeb}.cls-7{fill:#fff}.cls-13{fill:#1f1d29}
        </style>
    </defs>
    <g id="_4176242_-_app_design_development_split_testing_ui" transform="translate(-20.508 -21.924)">
        <g id="Сгруппировать_2668" transform="translate(20.508 21.924)">
            <g id="Сгруппировать_2667">
                <g id="Сгруппировать_2666">
                    <path id="XMLID_1133_" d="M50.6 96.494v-1.14l61.952-36.392a3.741 3.741 0 0 1 3.706-.38l32.5 18.624a2.892 2.892 0 0 1 .76.76l.19.38a2.949 2.949 0 0 1-1.235 3.9L87.657 117.3a4.629 4.629 0 0 1-4.181 0L52.405 99.44a3.262 3.262 0 0 1-1.805-2.946z" class="cls-1" transform="translate(-50.6 -58.083)"/>
                    <path id="XMLID_1132_" d="M51.455 96.2a1.32 1.32 0 0 1 0-2.47l60.907-35.157a4.629 4.629 0 0 1 4.181 0l31.926 18.434a1.32 1.32 0 0 1 0 2.47l-60.907 35.158a4.629 4.629 0 0 1-4.181 0z" class="cls-2" transform="translate(-50.6 -58.075)"/>
                    <path id="XMLID_1131_" d="M52.855 96.146a1.252 1.252 0 0 1 0-2.375l59.576-34.4a4.433 4.433 0 0 1 4.086 0l5.606 3.326a.537.537 0 0 1 0 .95l-.57.475a.62.62 0 0 0 0 1.045l15.2 8.742a1.328 1.328 0 0 0 1.33 0l1.33-.665a.863.863 0 0 1 .95 0l6.936 3.991a1.252 1.252 0 0 1 0 2.375l-59.576 34.4a4.433 4.433 0 0 1-4.086 0z" class="cls-1" transform="translate(-50.67 -58.115)"/>
                    <g id="XMLID_1129_" transform="translate(75.635 8.1)">
                        <path id="XMLID_1130_" d="M137.136 70.876l-6.841-3.9a.212.212 0 1 1 .19-.38l6.746 3.9a.349.349 0 0 1 .1.285c-.005.095-.1.095-.195.095z" class="cls-1" transform="translate(-130.2 -66.6)"/>
                    </g>
                </g>
            </g>
        </g>
        <g id="Сгруппировать_2672" transform="translate(78.279 54.895)">
            <g id="Сгруппировать_2671">
                <g id="Сгруппировать_2670">
                    <path id="XMLID_26_" d="M111.4 131.194v-1.14l61.952-36.392a3.741 3.741 0 0 1 3.706-.38l32.5 18.624a2.892 2.892 0 0 1 .76.76l.19.38a2.949 2.949 0 0 1-1.235 3.9L148.457 152a4.629 4.629 0 0 1-4.181 0l-31.071-17.86a3.484 3.484 0 0 1-1.805-2.946z" class="cls-1" transform="translate(-111.4 -92.783)"/>
                    <path id="XMLID_23_" d="M112.355 130.9a1.32 1.32 0 0 1 0-2.47l60.907-35.157a4.629 4.629 0 0 1 4.181 0l31.926 18.434a1.32 1.32 0 0 1 0 2.47l-60.907 35.157a4.629 4.629 0 0 1-4.181 0z" class="cls-2" transform="translate(-111.405 -92.775)"/>
                    <path id="XMLID_4_" d="M113.755 130.846a1.252 1.252 0 0 1 0-2.375l59.576-34.4a4.433 4.433 0 0 1 4.086 0l5.606 3.326a.537.537 0 0 1 0 .95l-.665.38a.62.62 0 0 0 0 1.045l15.2 8.742a1.328 1.328 0 0 0 1.33 0l1.33-.665a.863.863 0 0 1 .95 0l6.936 3.991a1.252 1.252 0 0 1 0 2.375l-59.576 34.4a4.432 4.432 0 0 1-4.086 0z" class="cls-1" transform="translate(-111.475 -92.815)"/>
                    <g id="XMLID_2_" transform="translate(75.73 8.005)">
                        <path id="XMLID_3_" d="M198.036 105.476l-6.841-3.9a.212.212 0 1 1 .19-.38l6.746 3.9a.349.349 0 0 1 .1.285.294.294 0 0 1-.195.095z" class="cls-1" transform="translate(-191.1 -101.2)"/>
                    </g>
                </g>
            </g>
        </g>
        <g id="XMLID_338_" transform="translate(32.86 69.514)">
            <path id="XMLID_174_" d="M75.382 136.609c-.19 0-.285-.1-.38-.285a.5.5 0 0 1 .19-.665l12.637-7.316a1.385 1.385 0 0 0 .665-1.235 1.483 1.483 0 0 0-.76-1.235L64.55 112.759a1.848 1.848 0 0 1 0-3.231l2.47-1.33a.489.489 0 0 1 .475.855l-2.47 1.33a.969.969 0 0 0-.475.76.846.846 0 0 0 .475.76l23.185 13.208a2.361 2.361 0 0 1 1.235 2.09 2.611 2.611 0 0 1-1.14 2.09l-12.637 7.316z" class="cls-3" transform="translate(-63.6 -108.161)"/>
        </g>
        <g id="XMLID_339_" transform="translate(29.535 68.374)">
            <path id="XMLID_173_" d="M70.457 136.549c-.19 0-.285-.1-.38-.285a.5.5 0 0 1 .19-.665l14.348-8.267a.294.294 0 0 0 .1-.19s0-.19-.1-.19l-22.9-13.018a3.081 3.081 0 0 1-1.615-2.756 3.172 3.172 0 0 1 1.71-2.756L64.566 107a.489.489 0 1 1 .475.855l-2.756 1.425a2.09 2.09 0 0 0-1.14 1.9 2.233 2.233 0 0 0 1.14 2l22.9 13.018a1.243 1.243 0 0 1 0 2.09l-14.348 8.267z" class="cls-4" transform="translate(-60.1 -106.961)"/>
        </g>
        <g id="XMLID_337_" transform="translate(49.147 91.667)">
            <path id="XMLID_172_" d="M119.374 144.9a3.991 3.991 0 0 1-2-.57l-19.669-11.5a2.842 2.842 0 0 0-2.756 0l-13.493 7.792a.489.489 0 0 1-.475-.855l13.493-7.792a3.69 3.69 0 0 1 3.706 0l19.669 11.5a2.75 2.75 0 0 0 2.946 0l3.326-1.9a.489.489 0 0 1 .475.855l-3.326 1.9a3.426 3.426 0 0 1-1.896.57z" class="cls-3" transform="translate(-80.74 -131.475)"/>
        </g>
        <g id="XMLID_359_" transform="translate(49.147 94.28)">
            <path id="XMLID_171_" d="M119.374 147.884a4.069 4.069 0 0 1-2.09-.57L97.14 135.436a1.458 1.458 0 0 0-1.52 0l-14.158 8.172a.489.489 0 1 1-.475-.855l14.158-8.172a2.319 2.319 0 0 1 2.47 0l20.144 11.877a3.088 3.088 0 0 0 3.136 0l5.416-3.041a.489.489 0 1 1 .475.855l-5.416 3.041a3.513 3.513 0 0 1-1.996.571z" class="cls-4" transform="translate(-80.74 -134.225)"/>
        </g>
        <g id="XMLID_422_" transform="translate(25.734 26.223)">
            <path id="XMLID_429_" d="M99.2 70.772l14.063-8.172 14.063 8.172-14.063 8.077z" class="cls-2" transform="translate(-58.247 -62.6)"/>
            <path id="XMLID_428_" d="M117.5 81.272l14.158-8.172 14.063 8.172-14.063 8.077z" class="cls-2" transform="translate(-59.159 -63.123)"/>
            <path id="XMLID_427_" d="M95.605 73.2L93.8 74.34l31.451 18.148 1.805-1.045z" class="cls-2" transform="translate(-57.978 -63.128)"/>
            <path id="XMLID_426_" d="M91.005 75.8L89.2 76.845l31.451 18.244 1.805-1.14z" class="cls-2" transform="translate(-57.749 -63.258)"/>
            <path id="XMLID_425_" d="M86.6 78.4l-1.9 1.14 31.451 18.148 1.9-1.045z" class="cls-2" transform="translate(-57.525 -63.387)"/>
            <path id="XMLID_424_" d="M82.005 81L80.2 82.045l31.451 18.148 1.805-1.045z" class="cls-2" transform="translate(-57.301 -63.517)"/>
            <path id="XMLID_423_" d="M76.624 83.6L56.1 95.477l31.451 18.148 20.524-11.877z" class="cls-2" transform="translate(-56.1 -63.646)"/>
        </g>
        <g id="XMLID_398_" transform="translate(83.98 58.149)">
            <path id="XMLID_421_" d="M160.5 104.277l14.063-8.077 14.063 8.077-14.063 8.172z" class="cls-2" transform="translate(-119.547 -96.2)"/>
            <path id="XMLID_420_" d="M159.8 125.777l14.063-8.077 14.158 8.077-14.158 8.172z" class="cls-2" transform="translate(-119.512 -97.271)"/>
            <path id="XMLID_419_" d="M137.829 117.2L117.4 129.077l31.451 18.148 20.524-11.877z" class="cls-2" transform="translate(-117.4 -97.246)"/>
            <path id="XMLID_418_" d="M191.61 105.7l-1.71.95 15.963 9.217 1.71-.95z" class="cls-2" transform="translate(-121.012 -96.673)"/>
            <path id="XMLID_417_" d="M187.21 108.1l-1.71 1.045 15.963 9.217 1.71-1.045z" class="cls-2" transform="translate(-120.793 -96.793)"/>
            <path id="XMLID_415_" d="M182.91 110.7l-1.71.95 15.963 9.217 1.71-.95z" class="cls-2" transform="translate(-120.578 -96.922)"/>
            <path id="XMLID_403_" d="M178.605 113.1l-1.805 1.045 15.963 9.217 1.805-1.045z" class="cls-2" transform="translate(-120.359 -97.042)"/>
            <path id="XMLID_402_" d="M156.905 106.8l-1.805 1.045 15.868 9.217 1.9-1.14z" class="cls-2" transform="translate(-119.278 -96.728)"/>
            <path id="XMLID_401_" d="M152.305 109.4l-1.805 1.045 15.868 9.122 1.9-1.045z" class="cls-2" transform="translate(-119.049 -96.858)"/>
            <path id="XMLID_400_" d="M147.805 112L146 113.045l15.963 9.217 1.805-1.14z" class="cls-2" transform="translate(-118.825 -96.987)"/>
            <path id="XMLID_399_" d="M143.305 114.6l-1.805 1.045 15.868 9.122 1.9-1.045z" class="cls-2" transform="translate(-118.601 -97.117)"/>
        </g>
        <g id="XMLID_361_" transform="translate(113.056 63.447)">
            <path id="XMLID_383_" fill="url(#linear-gradient)" d="M174.225 109.585H172.7a9.924 9.924 0 0 0-2.375-1.9c-5.131-2.946-13.4-2.946-18.529 0a12.257 12.257 0 0 0-2.375 1.9H148v3.421c0 2 1.235 3.9 3.8 5.416 5.131 2.946 13.4 2.946 18.529 0 2.565-1.52 3.8-3.421 3.8-5.416v-3.421z" transform="translate(-148 -101.959)"/>
            <path id="XMLID_382_" fill="url(#linear-gradient-2)" d="M151.8 103.984c5.131-2.946 13.4-2.946 18.529 0s5.131 7.791 0 10.737-13.4 2.946-18.529 0c-5.034-2.945-5.034-7.791 0-10.737z" transform="translate(-148.001 -101.775)"/>
            <g id="XMLID_362_" transform="translate(6.746 2.969)">
                <path id="XMLID_363_" d="M158.616 113.262l-3.516-2.09 8.647-6.271 3.136 1.805a3 3 0 0 1 1.14.95 1.018 1.018 0 0 1 .285.95 2.044 2.044 0 0 1-.95 1.425 3.531 3.531 0 0 1-2.09.76h-.475a.718.718 0 0 1-.38-.1 1.31 1.31 0 0 1 .475 1.235 1.927 1.927 0 0 1-.95 1.235 5.027 5.027 0 0 1-2.185.855 4.323 4.323 0 0 1-3.137-.754zm-.1-2.185l1.235.76a5.077 5.077 0 0 0 1.33.57 1.4 1.4 0 0 0 1.14-.38c.38-.285.57-.57.38-.855-.1-.285-.475-.57-1.14-.95l-1.045-.665zm3.421-2.565l.855.475a6.53 6.53 0 0 0 1.235.57 1.714 1.714 0 0 0 1.14-.285c.38-.285.57-.57.38-.76a2.109 2.109 0 0 0-.95-.76l-.855-.475z" class="cls-7" transform="translate(-155.1 -104.9)"/>
            </g>
        </g>
        <g id="XMLID_385_" transform="translate(53.598 30.951)">
            <path id="XMLID_391_" fill="url(#linear-gradient-3)" d="M111.63 75.285h-1.43a9.923 9.923 0 0 0-2.375-1.9c-5.131-2.946-13.4-2.946-18.529 0a12.256 12.256 0 0 0-2.375 1.9H85.5v3.421c0 2 1.235 3.9 3.8 5.416 5.131 2.946 13.4 2.946 18.529 0 2.565-1.52 3.8-3.421 3.8-5.416z" transform="translate(-85.429 -67.754)"/>
            <path id="XMLID_390_" fill="#3c5185" d="M89.2 69.784c5.131-2.946 13.4-2.946 18.529 0s5.131 7.791 0 10.737-13.4 2.946-18.529 0c-5.034-2.945-5.034-7.791 0-10.737z" transform="translate(-85.425 -67.575)"/>
            <g id="XMLID_386_" transform="translate(6.247 2.874)">
                <path id="XMLID_387_" d="M98.651 78.772l1.14-1.805-3.326-2-2.565.95-1.9-1.136 12.067-4.181 1.71 1.045-5.131 8.267zm3.706-5.8l-3.516 1.235 2 1.14z" class="cls-7" transform="translate(-92 -70.6)"/>
            </g>
        </g>
        <g id="Сгруппировать_2674" transform="translate(21.543 65.834)">
            <g id="Сгруппировать_2673">
                <path id="XMLID_358_" fill="#3f3d4f" d="M84.775 191.879L57.6 176.106V143.8l27.175 6.936z" transform="translate(-47.528 -126.792)"/>
                <path id="XMLID_357_" d="M91.331 145.5l-5.131 2.946v43.518l5.131-3.041z" class="cls-2" transform="translate(-48.953 -126.876)"/>
                <path id="XMLID_356_" d="M77.406 170.883L47 153.4v2.28l30.406 17.578z" class="cls-2" transform="translate(-47 -127.27)"/>
                <path id="XMLID_355_" d="M77.406 169.513l20.334-26.035L67.334 125.9 47 152.03z" class="cls-1" transform="translate(-47 -125.9)"/>
                <path id="XMLID_354_" fill="#88d1ff" d="M76.9 167.087l17.958-22.994-26.7-15.393L50.2 151.6z" transform="translate(-47.159 -126.039)"/>
                <path id="XMLID_353_" fill="#2a2835" d="M79 172.81l20.334-25.56v-2.85L79 170.435z" transform="translate(-48.594 -126.822)"/>
                <g id="XMLID_352_" transform="translate(15.488 14.063)">
                    <path id="XMLID_170_" d="M81.639 162.459l.285-.38-2.661-1.52-4.086-10.259-6.461 3.8-4.941-13.4-.475.1 5.131 13.968 6.556-3.8 3.9 9.882z" class="cls-13" transform="translate(-63.3 -140.7)"/>
                </g>
                <g id="XMLID_351_" transform="translate(20.049 17.483)">
                    <path id="XMLID_169_" d="M80.642 164.349l.19-.38-2.661-1.615.475-9.692-5.606 4.561-4.56-12.923-.38.19 4.751 13.493 5.321-4.371-.475 9.027z" class="cls-3" transform="translate(-68.1 -144.3)"/>
                </g>
                <g id="XMLID_350_" transform="translate(14.918 13.588)">
                    <path id="XMLID_168_" d="M62.985 141.91a.2.2 0 0 0 .19-.19l.285-.855.76.475a.212.212 0 1 0 .19-.38l-1.235-.76-.475 1.425c.1.1.1.19.285.285z" class="cls-13" transform="translate(-62.7 -140.2)"/>
                </g>
                <g id="XMLID_344_" transform="translate(19.479 16.913)">
                    <path id="XMLID_167_" d="M67.785 145.41a.2.2 0 0 0 .19-.19l.285-.855.76.475a.212.212 0 0 0 .19-.38l-1.235-.76-.475 1.425a.3.3 0 0 0 .285.285z" class="cls-3" transform="translate(-67.5 -143.7)"/>
                </g>
            </g>
        </g>
    </g>
</svg>
